<svg width="661" height="660" viewBox="0 0 661 660" fill="none" xmlns="http://www.w3.org/2000/svg">
<circle cx="330.5" cy="330" r="330" fill="#FBCE51"/>
<g style="mix-blend-mode:overlay">
<path d="M541.44 566.52L540.849 565.831L542.03 564.454L535.832 557.469L536.225 560.223L536.52 568.685L536.816 569.078L538.193 568.193L538.783 568.881L534.946 572.325L534.356 571.636L535.34 570.456L527.666 561.699L526.387 562.585L525.796 561.896L529.732 558.452L530.322 559.141L529.24 560.322L535.537 567.406L535.143 564.848L534.848 556.19L534.356 555.698L532.88 556.682L532.29 555.993L536.225 552.549L536.816 553.238L535.733 554.419L543.408 563.175L544.687 562.388L545.277 563.077L541.44 566.52Z" fill="black"/>
<path d="M531.798 574.489C531.404 574.981 531.109 575.276 530.814 575.572C530.519 575.867 530.224 576.162 529.929 576.359C528.748 577.343 527.666 577.933 526.682 578.031C525.698 578.13 524.911 577.834 524.222 576.949C523.632 576.162 523.337 575.375 523.435 574.489C523.533 573.604 523.927 572.817 524.517 572.128C523.632 572.817 522.746 573.112 521.861 573.112C520.975 573.013 520.287 572.62 519.696 571.931C518.811 570.849 518.516 569.865 518.713 568.783C518.909 567.701 519.696 566.618 521.074 565.438C521.664 564.946 522.254 564.552 522.746 564.356C523.238 564.06 523.73 563.864 524.025 563.765C524.321 563.667 524.517 563.568 524.616 563.568L526.387 566.323L525.698 566.914L523.73 565.339C523.042 565.438 522.353 565.831 521.467 566.52C520.779 567.012 520.484 567.602 520.484 568.291C520.484 568.98 520.779 569.668 521.369 570.456C521.861 571.046 522.451 571.439 523.14 571.538C523.829 571.636 524.616 571.341 525.501 570.652L526.485 569.865L527.174 570.652L526.288 571.341C525.895 571.636 525.6 572.03 525.304 572.522C525.108 573.014 525.009 573.505 525.009 573.997C525.108 574.489 525.304 575.08 525.698 575.572C526.19 576.26 526.78 576.555 527.371 576.555C527.961 576.555 528.551 576.26 529.24 575.768C529.633 575.375 530.027 575.08 530.224 574.686C530.421 574.293 530.519 573.997 530.519 573.801L529.732 572.226L530.617 571.439L532.585 573.604C532.487 573.702 532.191 573.997 531.798 574.489Z" fill="black"/>
<path d="M518.516 583.738L519.893 583.049L520.483 583.836L518.417 585.312C518.122 585.607 517.63 585.902 517.138 586.296C516.646 586.689 516.351 586.984 516.155 587.181C514.777 588.165 513.596 588.657 512.711 588.657C511.826 588.657 511.038 588.263 510.448 587.378C509.956 586.689 509.661 585.902 509.759 585.115C509.759 584.328 510.153 583.541 510.743 582.95C509.759 583.639 508.874 584.033 507.988 583.934C507.103 583.836 506.316 583.442 505.726 582.557C504.938 581.573 504.742 580.491 505.037 579.31C505.332 578.13 506.218 576.949 507.89 575.768C508.284 575.473 508.579 575.276 508.972 575.08C509.759 574.588 510.251 574.194 510.448 574.096L512.416 572.62L512.908 573.407L511.727 574.489L518.516 583.738ZM508.382 576.457C507.398 577.244 506.808 577.933 506.611 578.72C506.414 579.507 506.709 580.196 507.201 580.983C507.792 581.77 508.382 582.163 509.071 582.262C509.759 582.36 510.547 582.065 511.432 581.376C512.416 580.589 513.105 580.196 513.4 579.9L510.153 575.375C509.759 575.473 509.267 575.867 508.382 576.457ZM513.105 581.475L512.317 582.065C511.629 582.557 511.235 583.147 511.137 583.836C511.038 584.525 511.235 585.213 511.826 585.902C512.317 586.591 512.908 586.984 513.498 587.083C514.088 587.181 514.875 586.886 515.761 586.197C516.154 585.902 516.45 585.607 516.843 585.312L517.138 585.017L514.088 580.786C513.892 580.983 513.596 581.179 513.105 581.475Z" fill="black"/>
<path d="M505.922 594.068L504.25 595.249L493.329 586.985L492.247 587.477L491.755 586.69L495.887 583.935L496.379 584.722L495.198 585.706L497.461 587.575L501.987 584.525L501.2 581.77L499.724 582.459L499.232 581.672L502.971 579.212L503.463 579.999L502.577 580.786L505.922 594.068ZM503.364 592.199L504.643 593.281L504.053 591.609L502.282 585.607L498.347 588.264L503.364 592.199Z" fill="black"/>
<path d="M489.393 588.854C490.574 588.854 491.558 589.149 492.542 589.838C493.526 590.526 494.411 591.412 495.1 592.691C495.788 593.871 496.182 595.052 496.28 596.331C496.379 597.61 496.084 598.692 495.493 599.676C494.903 600.66 494.116 601.546 493.034 602.234C492.247 602.726 491.164 603.218 489.885 603.612L489.295 603.808L487.721 600.857L488.803 600.168L490.476 601.939C490.672 601.939 491.066 601.939 491.459 601.841C491.853 601.742 492.345 601.447 492.935 601.152C493.624 600.758 494.116 600.168 494.411 599.48C494.706 598.791 494.805 597.905 494.608 597.02C494.411 596.134 494.018 595.052 493.427 594.068C492.837 593.084 492.148 592.199 491.361 591.609C490.574 591.018 489.787 590.526 489 590.428C488.213 590.33 487.327 590.428 486.54 590.92C485.95 591.215 485.556 591.609 485.36 591.805C485.163 592.002 484.966 592.396 484.868 592.691L485.163 594.659L484.081 595.15L483.097 592.691C483.293 592.592 483.589 592.297 483.982 591.904C484.277 591.51 484.572 591.215 484.966 590.92C485.261 590.625 485.753 590.33 486.245 590.034C487.131 589.247 488.213 588.854 489.393 588.854Z" fill="black"/>
<path d="M479.555 606.563C479.457 607.646 479.161 608.728 478.669 609.515C478.079 610.4 477.39 611.089 476.505 611.483C475.423 612.073 474.34 612.27 473.357 612.171C472.373 612.073 471.389 611.679 470.503 610.991C469.618 610.302 468.831 609.417 468.241 608.138C467.552 606.76 467.158 605.481 467.06 604.3C466.961 603.021 467.257 601.939 467.749 600.955C468.241 599.972 469.028 599.283 470.011 598.692C471.094 598.102 472.176 597.807 473.258 597.905C474.34 598.004 475.226 598.397 476.111 598.988C476.997 599.676 477.784 600.562 478.374 601.841L481.031 600.463L478.473 595.643L476.997 596.233L476.603 595.446L481.129 592.986L481.523 593.773L480.244 594.659L485.753 604.891L487.131 604.399L487.524 605.186L483.097 607.547L482.703 606.76L483.982 605.875L481.621 601.447L478.965 602.923C479.358 604.301 479.555 605.481 479.555 606.563ZM477.784 607.941C477.882 606.662 477.489 605.186 476.505 603.317C475.619 601.742 474.636 600.562 473.553 599.972C472.471 599.381 471.389 599.283 470.208 599.873C469.126 600.463 468.634 601.349 468.536 602.53C468.437 603.71 468.929 605.284 469.913 607.154C470.799 608.728 471.684 609.908 472.766 610.499C473.848 611.187 474.931 611.188 475.915 610.597C477.095 610.105 477.686 609.22 477.784 607.941Z" fill="black"/>
<path d="M458.795 611.286C458.107 610.892 457.123 610.4 456.041 609.711C455.254 609.22 454.762 608.826 454.368 608.629C453.975 608.433 453.679 608.334 453.483 608.334L452.794 608.432L452.4 607.645L454.466 606.662C454.762 606.563 455.155 606.662 455.647 606.957C456.139 607.252 456.926 607.744 457.812 608.432C458.894 609.22 459.681 609.712 460.37 610.105C460.96 610.499 461.452 610.597 461.845 610.4L462.928 609.908L460.665 605.087L459.091 605.579L458.697 604.792L463.321 602.628L463.715 603.513L462.436 604.3L467.355 614.828L468.831 614.434L469.224 615.32L464.699 617.386L464.305 616.303L465.584 615.418L463.321 610.499L461.845 611.187L460.665 617.681L462.141 617.189L462.534 618.074L458.402 620.042L458.008 619.157L459.287 618.369L460.665 611.679C460.173 611.778 459.484 611.581 458.795 611.286Z" fill="black"/>
<path d="M449.646 609.416C450.728 609.613 451.613 610.105 452.4 610.99C453.187 611.778 453.876 612.86 454.466 614.139C455.057 615.418 455.254 616.697 455.155 617.976C455.057 619.157 454.663 620.239 454.073 621.124C453.384 622.01 452.597 622.698 451.417 623.19C449.646 623.977 447.973 623.977 446.596 623.19C445.218 622.403 444.038 621.124 443.25 619.058C442.66 617.681 442.463 616.402 442.562 615.221C442.66 613.942 443.054 612.958 443.644 611.974C444.333 611.089 445.218 610.4 446.3 609.908C447.481 609.416 448.563 609.22 449.646 609.416ZM453.187 619.649C453.384 618.37 453.187 616.894 452.4 614.926C451.712 613.155 450.826 611.974 449.744 611.187C448.662 610.4 447.579 610.302 446.497 610.794C445.415 611.286 444.726 612.073 444.529 613.352C444.333 614.631 444.529 616.205 445.317 618.074C446.005 619.845 446.891 621.026 447.973 621.715C448.957 622.403 450.039 622.6 451.22 622.108C452.302 621.813 452.991 620.928 453.187 619.649Z" fill="black"/>
<path d="M442.168 625.453L443.644 625.158L443.939 626.044L441.578 626.929C441.184 627.027 440.692 627.323 440.102 627.519C439.512 627.815 439.118 627.913 438.921 628.011C437.347 628.602 436.068 628.798 435.183 628.503C434.297 628.208 433.707 627.618 433.313 626.634C433.018 625.847 433.018 624.961 433.215 624.273C433.412 623.584 434.002 622.895 434.789 622.403C433.707 622.797 432.723 622.895 431.838 622.6C430.952 622.305 430.362 621.616 430.067 620.731C429.673 619.55 429.673 618.468 430.264 617.386C430.854 616.303 432.034 615.418 434.002 614.729C434.396 614.532 434.789 614.434 435.281 614.336C436.167 614.041 436.757 613.844 436.954 613.844L439.315 612.958L439.61 613.844L438.233 614.532L442.168 625.453ZM434.396 615.713C433.215 616.107 432.428 616.697 432.133 617.386C431.739 618.074 431.739 618.861 432.133 619.747C432.428 620.632 432.92 621.223 433.51 621.419C434.101 621.616 434.986 621.616 435.97 621.223C437.151 620.829 437.938 620.534 438.233 620.337L436.363 615.123C435.97 615.123 435.38 615.32 434.396 615.713ZM437.642 621.813L436.659 622.207C435.872 622.502 435.281 622.994 435.084 623.584C434.888 624.174 434.888 624.961 435.183 625.748C435.478 626.536 435.872 627.126 436.462 627.323C437.052 627.519 437.839 627.519 438.823 627.126C439.217 626.929 439.709 626.831 440.102 626.536L440.496 626.339L438.725 621.419C438.43 621.518 438.134 621.616 437.642 621.813Z" fill="black"/>
<path d="M414.522 635.686L414.226 634.8L415.702 634.111L412.357 622.994L410.586 623.289L410.291 622.403L415.309 620.928L415.604 621.813L414.128 622.403L417.473 633.619L423.18 631.947L419.834 620.731L418.162 621.026L417.867 620.141L422.884 618.665L423.18 619.55L421.802 620.141L425.147 631.258L426.722 631.061L427.017 631.947L414.522 635.686Z" fill="black"/>
<path d="M406.847 624.076C407.831 624.47 408.717 625.06 409.406 626.044C410.094 626.929 410.586 628.11 410.98 629.487C411.275 630.865 411.373 632.144 411.078 633.324C410.783 634.505 410.291 635.489 409.504 636.276C408.717 637.063 407.733 637.653 406.651 637.948C404.781 638.44 403.207 638.145 401.928 637.26C400.649 636.276 399.764 634.8 399.173 632.636C398.78 631.258 398.78 629.881 399.075 628.7C399.37 627.519 399.862 626.437 400.649 625.65C401.436 624.863 402.42 624.273 403.601 623.978C404.781 623.682 405.864 623.682 406.847 624.076ZM408.914 634.702C409.307 633.521 409.307 631.947 408.815 629.979C408.323 628.208 407.635 626.831 406.749 625.945C405.864 625.06 404.781 624.765 403.601 625.06C402.42 625.355 401.633 626.142 401.24 627.323C400.846 628.503 400.846 630.176 401.338 632.144C401.83 634.013 402.42 635.292 403.404 636.177C404.289 637.063 405.372 637.358 406.552 637.063C407.635 636.571 408.422 635.882 408.914 634.702Z" fill="black"/>
<path d="M392.877 631.848C392.778 630.078 392.877 628.799 393.27 627.815C393.467 627.323 393.664 626.929 393.959 626.634C394.254 626.339 394.648 626.142 395.041 626.044C395.632 625.945 396.025 625.847 396.32 625.847L396.714 627.323C396.419 627.323 395.927 627.421 395.336 627.519C395.14 627.519 394.943 627.618 394.746 627.815C394.549 628.011 394.451 628.208 394.353 628.405C393.664 630.078 393.861 633.127 394.746 637.555L395.041 639.031L397.206 638.834L397.402 639.719L386.777 641.884L386.58 640.998L388.253 640.408L385.99 628.995L384.12 629.192L383.924 628.307L389.532 627.224L389.728 628.11L387.859 628.7L390.122 640.113L393.861 639.326L393.565 637.653C393.27 635.489 392.975 633.521 392.877 631.848Z" fill="black"/>
<path d="M383.137 641.392H384.711L384.809 642.278L375.364 643.753L374.675 640.9L375.758 640.703L376.545 642.376L381.169 641.786L380.382 636.571L377.332 637.063V638.637L376.348 638.834L375.659 634.603L376.643 634.407L377.135 635.981L380.185 635.587L379.299 630.078L374.085 631.061L373.495 633.521L372.314 633.324V629.979L382.546 628.405L382.645 629.291L381.169 629.684L383.137 641.392Z" fill="black"/>
<path d="M367.788 643.753L370.937 643.261L371.133 639.326L372.314 639.227L372.609 644.245L361 645.524L360.213 640.605L361.393 640.506L362.476 644.344L365.722 644.048L364.345 632.34L361.688 632.439L361.59 631.553L368.674 630.766L368.772 631.652L366.411 632.144L367.788 643.753Z" fill="black"/>
<path d="M352.539 638.342L353.424 638.244C353.719 638.047 354.014 637.555 354.211 636.965C354.408 636.374 354.801 635.587 355.097 634.702C355.392 633.816 355.687 633.128 355.884 632.636C356.08 632.144 356.277 631.947 356.474 631.947L359.032 631.75L359.13 632.636L358.442 632.931C358.245 633.029 358.048 633.128 357.851 633.521C357.655 633.816 357.359 634.407 357.064 635.095C356.671 635.981 356.376 636.67 356.08 637.161C355.785 637.752 355.49 638.047 355.097 638.342C355.982 638.539 356.671 638.932 357.163 639.523C357.655 640.113 357.95 640.9 358.048 641.884C358.147 643.36 357.753 644.442 356.966 645.032C356.08 645.623 354.9 646.016 353.227 646.115C352.834 646.115 352.44 646.115 351.85 646.115C351.26 646.115 350.768 646.115 350.472 646.115L347.816 646.311L347.718 645.426L349.292 645.131L348.505 633.521L346.734 633.423L346.635 632.537L352.145 632.144L352.243 633.029L350.472 633.324L350.866 638.244L352.539 638.342ZM351.751 645.229C352.342 645.229 352.834 645.229 353.227 645.229C354.211 645.131 354.9 644.934 355.392 644.442C355.884 643.95 356.08 643.261 355.982 642.179C355.884 641.195 355.589 640.408 354.998 639.916C354.408 639.424 353.719 639.228 352.735 639.228C351.751 639.326 351.063 639.326 350.768 639.424L351.161 645.131L351.751 645.229Z" fill="black"/>
<path d="M340.929 645.721L344.176 645.524L344.668 641.589H345.947L345.75 646.606L334.14 646.901L333.747 641.884H334.927L335.616 645.819H338.863L338.469 634.013L335.813 633.915V633.029L342.995 632.832V633.718L340.535 634.013L340.929 645.721Z" fill="black"/>
<path d="M325.286 633.718C326.269 634.308 326.958 635.194 327.45 636.276C327.942 637.358 328.139 638.637 328.139 640.113C328.139 641.49 327.745 642.769 327.155 643.753C326.565 644.835 325.679 645.622 324.695 646.213C323.613 646.803 322.531 647 321.252 647C320.268 647 319.186 646.803 317.808 646.508L317.218 646.41L317.513 643.064H318.792L319.186 645.426C319.382 645.622 319.678 645.721 320.071 645.819C320.465 645.918 321.055 646.016 321.645 646.016C322.432 646.016 323.121 645.819 323.81 645.426C324.4 645.032 324.99 644.343 325.286 643.458C325.679 642.572 325.876 641.49 325.876 640.31C325.876 639.129 325.778 638.047 325.482 637.063C325.187 636.079 324.695 635.292 324.105 634.702C323.515 634.111 322.727 633.816 321.744 633.816C321.055 633.816 320.563 633.816 320.169 633.915C319.776 634.013 319.481 634.21 319.284 634.406L318.497 636.177L317.316 635.981L317.808 633.324C318.103 633.324 318.497 633.226 318.989 633.127C319.481 633.029 319.874 632.931 320.268 632.832C320.661 632.734 321.252 632.734 321.842 632.734C323.121 632.734 324.302 633.029 325.286 633.718Z" fill="black"/>
<path d="M309.544 646.213L309.642 645.328L311.511 645.229L312.2 635.882L310.528 638.047L304.723 644.245V644.737L306.395 645.032L306.297 645.918L301.181 645.524L301.279 644.639L302.755 644.54L303.542 632.931L301.968 632.636L302.066 631.75L307.281 632.144L307.182 633.029L305.51 633.128L304.821 642.573L306.395 640.507L312.397 634.21V633.521L310.626 633.226L310.724 632.341L315.939 632.734L315.84 633.62L314.266 633.718L313.479 645.328L314.955 645.623L314.857 646.508L309.544 646.213Z" fill="black"/>
<path d="M289.276 644.344L289.67 639.424L290.949 639.523L291.047 643.36L295.081 643.95L296.458 632.242L293.212 631.652L293.31 630.766L300.591 631.553L300.492 632.439H298.426L297.147 643.95L299.115 644.442L299.016 645.327L289.276 644.344Z" fill="black"/>
<path d="M286.226 642.769L287.604 643.261L287.505 644.147L282.488 643.36L282.586 642.474H284.16L284.947 637.555L278.454 636.571L277.667 641.49L279.142 641.982L279.044 642.868L274.125 642.081L274.223 641.195H275.699L277.47 629.684L275.994 629.291L276.092 628.405L281.012 629.192L280.913 630.078L279.339 629.979L278.454 635.39L284.947 636.374L285.833 630.963L284.259 630.57L284.357 629.684L289.473 630.471L289.375 631.357L287.899 631.258L286.226 642.769Z" fill="black"/>
<path d="M267.336 640.703L265.368 640.31L263.499 626.732L262.417 626.339L262.614 625.453L267.435 626.437L267.238 627.323L265.664 627.224L265.959 630.078L271.272 631.16L272.649 628.602L271.075 628.11L271.272 627.224L275.601 628.11L275.404 628.995L274.223 628.897L267.336 640.703ZM266.746 637.555L266.844 639.227L267.631 637.653L270.681 632.144L266.057 631.16L266.746 637.555Z" fill="black"/>
<path d="M256.71 629.291C257.399 627.716 258.088 626.536 258.777 625.749C259.17 625.355 259.465 625.158 259.859 624.962C260.252 624.863 260.646 624.863 261.138 624.962C261.728 625.06 262.122 625.257 262.417 625.355L262.22 626.831C261.925 626.733 261.531 626.634 260.843 626.437C260.646 626.339 260.449 626.339 260.252 626.437C260.056 626.536 259.859 626.634 259.662 626.831C258.383 628.012 257.202 630.865 256.022 635.292L255.628 636.768L257.694 637.555L257.498 638.441L247.069 635.784L247.265 634.899L249.036 635.095L251.889 623.781L250.119 623.191L250.315 622.305L255.923 623.683L255.727 624.568L253.857 624.273L251.004 635.489L254.644 636.374L255.038 634.702C255.431 632.734 256.022 630.865 256.71 629.291Z" fill="black"/>
<path d="M227.883 630.078L228.178 629.192L229.949 629.487L233.393 618.37L231.819 617.681L232.114 616.796L237.328 618.468L237.033 619.354L235.361 619.059L231.917 630.176L233.491 630.865L233.196 631.75L227.883 630.078ZM240.673 628.307C239.198 627.815 238.214 627.126 237.623 626.241C237.033 625.355 236.935 624.273 237.328 622.994C237.722 621.617 238.509 620.731 239.591 620.239C240.673 619.747 241.952 619.747 243.428 620.141C243.625 620.239 243.822 620.239 244.019 620.338C244.215 620.436 244.412 620.534 244.609 620.534C245.298 620.829 245.888 621.026 246.38 621.223L248.84 622.01L248.544 622.896L246.97 622.6L243.527 633.718L244.904 634.407L244.609 635.292L239.493 633.718L239.788 632.833L241.657 633.128L242.936 628.996L240.673 628.307ZM244.412 621.617C244.215 621.518 243.92 621.42 243.428 621.321C242.444 621.026 241.559 621.026 240.87 621.42C240.182 621.813 239.69 622.502 239.296 623.584C239.001 624.568 239.001 625.355 239.394 626.044C239.788 626.733 240.477 627.225 241.461 627.52L243.33 628.11L245.199 622.109C244.904 621.813 244.707 621.715 244.412 621.617Z" fill="black"/>
<path d="M220.111 625.945L221.39 626.732L221.095 627.618L216.372 625.749L216.667 624.863L218.241 625.257L220.111 620.534L214.011 618.173L212.142 622.895L213.421 623.683L213.125 624.568L208.501 622.699L208.796 621.813L210.272 622.108L214.503 611.286L213.224 610.597L213.519 609.712L218.241 611.581L217.946 612.466L216.47 612.073L214.503 617.091L220.603 619.452L222.57 614.434L221.095 613.647L221.39 612.762L226.211 614.631L225.916 615.516L224.44 615.123L220.111 625.945Z" fill="black"/>
<path d="M202.106 619.944L200.237 619.058L201.319 605.383L200.335 604.694L200.729 603.907L205.255 605.874L204.861 606.76L203.385 606.268L203.09 609.121L208.108 611.384L210.075 609.22L208.698 608.432L209.092 607.645L213.125 609.416L212.732 610.203L211.551 609.908L202.106 619.944ZM202.303 616.795L202.106 618.468L203.188 617.09L207.321 612.368L202.992 610.4L202.303 616.795Z" fill="black"/>
<path d="M188.529 612.171L190.201 613.352L189.808 614.139L185.38 611.778L186.955 603.12L187.545 600.758L185.971 602.628L179.772 608.826L175.443 606.563L175.837 605.776L177.805 606.563L181.937 595.642L180.56 594.658L180.953 593.871L185.676 596.429L185.282 597.216L183.708 596.626L180.56 604.399L179.182 607.744L181.15 605.776L188.529 598.594L189.611 599.184L188.135 608.531L187.447 612.171L189.414 609.121L194.038 602.037L192.464 601.054L192.858 600.266L197.187 602.529L196.793 603.316L195.317 602.726L188.529 612.171Z" fill="black"/>
<path d="M169.147 602.923L167.376 601.841L170.131 588.46L169.245 587.673L169.737 586.886L173.968 589.444L173.476 590.231L172 589.641L171.311 592.494L176.034 595.249L178.198 593.281L176.919 592.297L177.411 591.51L181.248 593.773L180.756 594.56L179.674 594.167L169.147 602.923ZM169.737 599.775L169.344 601.447L170.623 600.267L175.345 596.036L171.213 593.576L169.737 599.775Z" fill="black"/>
<path d="M160.981 596.429L162.063 597.413L161.571 598.2L159.505 596.823C159.111 596.626 158.718 596.331 158.324 596.134C157.734 595.839 157.144 595.445 156.652 595.15C155.176 594.166 154.29 593.183 153.995 592.199C153.7 591.215 153.995 590.231 154.684 589.05C155.274 588.263 155.865 587.575 156.652 587.279C157.439 586.886 158.324 586.787 159.21 586.886C160.095 586.984 160.981 587.378 161.866 587.968C162.161 588.165 162.457 588.362 162.752 588.558C163.047 588.755 163.244 588.952 163.342 588.952L165.605 585.509L163.539 583.934L164.031 583.147L169.147 586.492L168.655 587.279L167.277 586.591L160.981 596.429ZM161.374 588.854C160.587 588.362 159.702 588.165 158.915 588.263C158.128 588.362 157.242 589.05 156.553 590.231C155.963 591.117 155.766 591.904 155.963 592.592C156.16 593.281 156.75 593.97 157.636 594.56C157.931 594.757 158.324 594.954 158.718 595.15C158.915 595.249 159.111 595.347 159.21 595.445L162.85 589.936C162.555 589.739 162.063 589.346 161.374 588.854Z" fill="black"/>
<path d="M156.652 579.114C157.144 580.196 157.242 581.278 156.947 582.459C156.75 583.639 156.16 584.82 155.373 586.001C154.586 587.181 153.602 587.968 152.52 588.46C151.437 588.952 150.257 589.247 149.076 589.051C147.895 588.952 146.813 588.559 145.731 587.772C144.944 587.181 144.058 586.394 143.173 585.41L142.779 584.918L144.845 582.262L145.829 582.951L144.845 585.115C144.944 585.312 145.042 585.607 145.337 586.001C145.632 586.296 146.026 586.689 146.518 587.083C147.207 587.575 147.895 587.772 148.682 587.772C149.47 587.772 150.257 587.476 151.044 586.985C151.831 586.493 152.618 585.706 153.307 584.722C153.995 583.738 154.487 582.852 154.782 581.868C155.078 580.885 155.176 579.999 154.979 579.212C154.782 578.425 154.29 577.736 153.602 577.146C153.11 576.752 152.618 576.556 152.224 576.359C151.831 576.162 151.536 576.162 151.24 576.26L149.568 577.343L148.682 576.556L150.552 574.686C150.749 574.785 151.142 574.981 151.634 575.178C152.126 575.375 152.52 575.473 152.913 575.67C153.307 575.867 153.7 576.162 154.29 576.457C155.471 577.146 156.258 578.031 156.652 579.114Z" fill="black"/>
<path d="M122.413 569.078L123.004 568.389L124.48 569.472L130.678 562.388L128.021 563.077L119.659 564.454L119.363 564.848L120.446 566.127L119.855 566.815L116.018 563.372L116.609 562.683L117.888 563.47L125.562 554.714L124.48 553.533L125.07 552.844L129.005 556.288L128.415 556.977L127.038 555.993L120.741 563.175L123.2 562.486L131.76 561.109L132.252 560.617L131.071 559.338L131.662 558.649L135.597 562.093L135.007 562.781L133.728 561.896L126.054 570.652L127.038 571.833L126.447 572.522L122.413 569.078Z" fill="black"/>
<path d="M113.264 560.519C112.772 560.223 112.378 559.928 111.985 559.731C111.591 559.535 111.394 559.24 111.099 559.043C110.017 557.961 109.328 556.977 109.033 555.993C108.738 555.009 109.033 554.222 109.82 553.435C110.509 552.746 111.296 552.353 112.181 552.353C113.067 552.353 113.854 552.648 114.641 553.14C113.854 552.353 113.362 551.467 113.362 550.582C113.362 549.696 113.657 548.909 114.247 548.22C115.133 547.236 116.215 546.745 117.297 546.843C118.38 546.941 119.56 547.532 120.938 548.811C121.43 549.303 121.921 549.795 122.217 550.286C122.512 550.778 122.807 551.172 123.004 551.467C123.201 551.762 123.299 551.959 123.299 552.057L120.839 554.123L120.151 553.435L121.43 551.369C121.233 550.68 120.741 549.991 119.954 549.303C119.363 548.712 118.675 548.417 118.084 548.515C117.494 548.614 116.707 549.007 116.018 549.696C115.526 550.286 115.231 550.877 115.133 551.565C115.133 552.254 115.526 553.041 116.313 553.73L117.297 554.615L116.609 555.402L115.822 554.615C115.428 554.222 115.034 554.025 114.543 553.828C114.051 553.632 113.559 553.632 113.067 553.73C112.575 553.828 112.083 554.123 111.591 554.615C111.001 555.206 110.804 555.796 110.804 556.386C110.902 556.977 111.197 557.567 111.788 558.157C112.181 558.551 112.575 558.846 112.968 558.944C113.362 559.141 113.657 559.141 113.854 559.043L115.33 558.059L116.215 558.846L114.346 561.01C114.149 561.01 113.854 560.814 113.264 560.519Z" fill="black"/>
<path d="M102.441 548.515L103.326 549.794L102.638 550.385L100.867 548.515C100.572 548.22 100.178 547.827 99.6862 547.433C99.1942 547.04 98.8991 546.744 98.7023 546.548C97.5217 545.269 96.9313 544.186 96.7346 543.301C96.6362 542.415 96.9313 541.628 97.7184 540.841C98.4071 540.251 99.0958 539.857 99.8829 539.857C100.67 539.759 101.457 540.054 102.146 540.546C101.359 539.661 100.867 538.775 100.867 537.89C100.867 537.004 101.162 536.217 101.949 535.528C102.835 534.643 103.917 534.249 105.097 534.446C106.278 534.545 107.557 535.332 109.033 536.906C109.328 537.201 109.623 537.594 109.918 537.89C110.509 538.578 110.902 539.07 111.099 539.169L112.772 540.94L112.083 541.53L110.902 540.546L102.441 548.515ZM104.015 542.809L103.326 542.022C102.736 541.432 102.146 541.038 101.457 541.038C100.768 541.038 100.178 541.333 99.4894 541.924C98.8991 542.514 98.5055 543.104 98.5055 543.694C98.5055 544.285 98.8991 544.973 99.5878 545.761C99.8829 546.056 100.276 546.449 100.572 546.744L100.867 547.04L104.704 543.498C104.704 543.498 104.409 543.203 104.015 542.809ZM108.443 537.496C107.557 536.611 106.77 536.119 105.983 536.02C105.196 535.922 104.507 536.217 103.818 536.906C103.13 537.594 102.736 538.185 102.835 538.874C102.933 539.562 103.228 540.251 104.015 541.038C104.901 541.923 105.393 542.514 105.688 542.809L109.722 538.972C109.525 538.775 109.131 538.283 108.443 537.496Z" fill="black"/>
<path d="M90.6346 537.3L89.2572 535.725L96.0459 523.919L95.4555 522.935L96.1442 522.345L99.391 526.084L98.7023 526.674L97.5217 525.592L95.9475 528.051L99.4894 532.183L102.146 531.003L101.26 529.625L101.949 529.035L104.802 532.38L104.114 532.971L103.228 532.183L90.6346 537.3ZM92.1104 534.446L91.1266 535.922L92.7007 535.135L98.5055 532.675L95.3572 529.035L92.1104 534.446Z" fill="black"/>
<path d="M93.6848 520.18C93.7832 521.263 93.5864 522.443 93.0945 523.427C92.6025 524.411 91.7171 525.493 90.6348 526.379C89.5526 527.264 88.3719 527.756 87.1913 527.953C86.0107 528.15 84.83 528.051 83.7478 527.658C82.6655 527.264 81.6817 526.477 80.8946 525.493C80.3043 524.706 79.714 523.722 79.1236 522.542L78.8285 521.951L81.5833 519.984L82.3704 520.967L80.7962 522.837C80.7962 523.034 80.8946 523.427 81.0914 523.821C81.2881 524.214 81.5833 524.706 81.9768 525.198C82.4688 525.788 83.0591 526.28 83.8462 526.477C84.6332 526.674 85.4203 526.674 86.3058 526.379C87.1913 526.084 88.1752 525.592 89.159 524.805C90.0445 524.116 90.8316 523.329 91.4219 522.443C92.0122 521.558 92.3074 520.771 92.3074 519.885C92.4058 519 92.1106 518.213 91.5203 517.524C91.1267 517.032 90.7332 516.638 90.438 516.442C90.1429 516.245 89.8477 516.048 89.4542 516.048L87.4865 516.54L86.8961 515.556L89.2574 514.277C89.4542 514.474 89.7493 514.769 90.1429 515.064C90.5364 515.359 90.93 515.556 91.2251 515.851C91.5203 516.147 91.9138 516.54 92.3074 517.032C93.0945 518.016 93.5864 519.098 93.6848 520.18Z" fill="black"/>
<path d="M74.8929 512.604C73.8107 512.703 72.7284 512.506 71.8429 512.112C70.9574 511.719 70.1703 511.03 69.58 510.145C68.8913 509.161 68.4978 508.177 68.4978 507.095C68.4978 506.013 68.6946 505.029 69.2849 504.143C69.8752 503.159 70.6623 502.372 71.7445 501.585C73.0236 500.7 74.2042 500.208 75.3848 499.913C76.5655 499.716 77.7461 499.814 78.7299 500.208C79.7138 500.601 80.5993 501.29 81.288 502.175C81.9767 503.159 82.3702 504.242 82.4686 505.324C82.567 506.406 82.2718 507.39 81.6815 508.374C81.0912 509.358 80.3041 510.243 79.2219 511.03L80.9928 513.49L85.4202 510.342L84.6331 508.866L85.4202 508.374L88.3718 512.604L87.5847 513.096L86.5024 511.916L77.0574 518.606L77.7461 519.983L76.959 520.475L74.0074 516.343L74.7945 515.851L75.8768 517.032L80.009 514.08L78.238 511.621C77.1558 512.211 75.9751 512.604 74.8929 512.604ZM73.3187 511.129C74.5977 511.129 76.0735 510.538 77.7461 509.259C79.2219 508.177 80.2057 507.095 80.6977 505.914C81.1896 504.733 81.0912 503.651 80.4025 502.667C79.7138 501.684 78.7299 501.29 77.5493 501.29C76.3687 501.29 74.8929 501.979 73.2203 503.159C71.7445 504.242 70.7607 505.324 70.2687 506.406C69.7768 507.587 69.8752 508.571 70.5639 509.554C71.1542 510.637 72.1381 511.129 73.3187 511.129Z" fill="black"/>
<path d="M67.7107 492.731C68.0059 491.944 68.3994 490.96 68.9897 489.779C69.3833 488.992 69.6784 488.402 69.8752 487.91C70.072 487.516 70.072 487.221 70.072 487.024L69.8752 486.336L70.6623 485.844L71.9413 487.811C72.1381 488.008 72.0397 488.5 71.8429 488.992C71.6462 489.582 71.2526 490.369 70.6623 491.353C70.072 492.534 69.58 493.419 69.2849 494.108C68.9897 494.797 68.9897 495.289 69.1865 495.584L69.7768 496.568L74.3026 493.715L73.6139 492.14L74.401 491.648L77.1558 495.978L76.3687 496.469L75.3848 495.289L65.5462 501.487L66.1365 502.865L65.3494 503.356L62.693 499.126L63.4801 498.634L64.464 499.815L68.9897 496.961L68.1042 495.584L61.5124 495.289L62.2011 496.765L61.414 497.257L58.9543 493.321L59.7414 492.829L60.7253 493.911L67.5139 494.403C67.3172 494.108 67.4155 493.419 67.7107 492.731Z" fill="black"/>
<path d="M68.3011 483.384C68.2027 484.466 67.8091 485.45 67.1204 486.335C66.4317 487.221 65.4479 488.106 64.2672 488.795C62.9882 489.484 61.8076 489.877 60.627 489.976C59.4463 490.074 58.3641 489.779 57.3802 489.287C56.3963 488.795 55.6092 488.008 55.0189 486.926C54.0351 485.253 53.8383 483.679 54.4286 482.105C55.0189 480.629 56.1996 479.35 58.0689 478.268C59.3479 477.579 60.6269 477.185 61.8076 477.087C62.9882 476.989 64.1688 477.284 65.1527 477.776C66.1365 478.268 66.9237 479.055 67.514 480.137C68.1043 481.219 68.3994 482.302 68.3011 483.384ZM58.5608 488.205C59.8399 488.303 61.3157 487.811 63.0866 486.827C64.7592 485.942 65.8414 484.86 66.4317 483.777C67.022 482.695 67.022 481.514 66.4317 480.531C65.8414 479.448 64.8576 478.956 63.5785 478.858C62.2995 478.76 60.7253 479.252 58.9544 480.235C57.2818 481.121 56.1996 482.203 55.6093 483.285C55.0189 484.368 55.0189 485.45 55.6093 486.532C56.3963 487.516 57.3802 488.106 58.5608 488.205Z" fill="black"/>
<path d="M51.477 477.973L51.9689 479.449L51.1819 479.842L50.0012 477.579C49.8045 477.186 49.5093 476.694 49.2142 476.202C48.919 475.71 48.6238 475.316 48.5254 475.021C47.7383 473.447 47.4432 472.266 47.5416 471.381C47.64 470.495 48.2303 469.807 49.1158 469.315C49.9028 468.921 50.6899 468.823 51.477 468.921C52.2641 469.118 52.9528 469.512 53.5431 470.2C52.9528 469.118 52.756 468.232 52.9528 467.347C53.1496 466.462 53.7399 465.773 54.6254 465.379C55.7076 464.789 56.8883 464.691 57.9705 465.183C59.0528 465.576 60.135 466.757 61.0205 468.528C61.2173 468.921 61.414 469.315 61.5124 469.708C61.906 470.594 62.2011 471.086 62.2995 471.282L63.4801 473.447L62.693 473.841L61.8076 472.562L51.477 477.973ZM54.527 472.955L54.0351 472.07C53.6415 471.282 53.1496 470.791 52.4609 470.594C51.8706 470.397 51.0835 470.495 50.2964 470.987C49.5093 471.381 49.0174 471.873 48.919 472.463C48.8206 473.053 48.919 473.841 49.4109 474.824C49.6077 475.218 49.8045 475.611 50.0996 476.005L50.2964 476.3L54.9205 473.939C54.9205 473.742 54.7238 473.447 54.527 472.955ZM60.135 469.02C59.5447 467.937 58.9544 467.249 58.1673 466.953C57.4786 466.658 56.6915 466.757 55.806 467.249C54.9205 467.642 54.4286 468.232 54.3302 468.823C54.1334 469.413 54.3302 470.299 54.8221 471.282C55.4125 472.365 55.806 473.152 56.0028 473.447L60.9221 470.889C60.9221 470.594 60.6269 470.003 60.135 469.02Z" fill="black"/>
<path d="M37.8013 451.9L38.6867 451.507L39.5722 452.884L50.1979 448.162L49.706 446.489L50.5915 446.095L52.756 450.916L51.8705 451.31L51.0834 449.933L40.4577 454.655L42.9174 460.165L53.6414 455.442L53.1495 453.77L54.035 453.376L56.1011 458.197L55.2156 458.591L54.4285 457.311L43.8028 462.034L44.1964 463.608L43.3109 464.002L37.8013 451.9Z" fill="black"/>
<path d="M48.4271 442.75C48.2303 443.734 47.64 444.718 46.8529 445.505C46.0658 446.292 44.9836 446.981 43.6062 447.473C42.2288 447.965 40.9498 448.162 39.7691 448.063C38.5885 447.965 37.5062 447.571 36.6208 446.883C35.7353 446.194 35.0466 445.308 34.653 444.226C33.9643 442.455 33.9643 440.783 34.7514 439.405C35.5385 438.028 36.9159 436.946 38.982 436.158C40.3595 435.667 41.6385 435.47 42.8191 435.568C43.9997 435.667 45.082 436.06 46.0658 436.749C46.9513 437.438 47.64 438.323 48.0335 439.405C48.5255 440.684 48.6239 441.767 48.4271 442.75ZM38.0965 446.095C39.3756 446.391 40.8514 446.095 42.8191 445.407C44.59 444.718 45.7707 443.931 46.5578 442.849C47.3448 441.865 47.5416 440.783 47.0497 439.602C46.6561 438.52 45.7707 437.831 44.4916 437.536C43.2126 437.241 41.6385 437.536 39.7691 438.225C37.9982 438.913 36.7192 439.7 36.0305 440.783C35.2434 441.767 35.145 442.849 35.6369 444.029C36.0304 445.21 36.9159 445.899 38.0965 446.095Z" fill="black"/>
<path d="M38.8836 429.96C40.5562 429.665 41.9336 429.567 42.9175 429.764C43.4094 429.862 43.8029 430.059 44.0981 430.255C44.3932 430.551 44.59 430.846 44.7868 431.239C44.9836 431.83 45.0819 432.223 45.0819 432.518L43.7045 433.109C43.6062 432.814 43.5078 432.42 43.311 431.731C43.2126 431.534 43.1142 431.338 42.9175 431.239C42.7207 431.141 42.5239 431.043 42.2288 430.944C40.5562 430.551 37.5062 431.043 33.1772 432.518L31.7998 433.01L32.2918 435.076L31.4063 435.372L27.9628 425.139L28.8482 424.844L29.6353 426.418L40.6546 422.68L40.261 420.909L41.1465 420.614L43.0158 426.025L42.1304 426.32L41.3433 424.549L30.324 428.189L31.5047 431.83L33.0789 431.338C35.3417 430.747 37.2111 430.255 38.8836 429.96Z" fill="black"/>
<path d="M28.1596 421.499L28.3564 423.073L27.4709 423.368L24.8145 414.218L27.5693 413.136L27.8644 414.12L26.2902 415.104L27.4709 419.63L32.4886 418.154L31.6031 415.202L30.0289 415.399L29.7338 414.415L33.866 413.235L34.1611 414.218L32.6853 414.907L33.4724 417.957L38.7853 416.383L37.1127 411.365L34.5547 411.07V409.889L37.8014 409.496L40.6546 419.433L39.7691 419.728L39.1788 418.252L28.1596 421.499Z" fill="black"/>
<path d="M23.9289 406.544L24.8144 409.594L28.7498 409.299L29.045 410.48L24.1257 411.365L21.3708 400.051L26.1918 398.673L26.4869 399.854L22.8466 401.428L23.5354 404.577L34.9481 401.723L34.4562 399.067L35.3417 398.87L37.0143 405.757L36.1288 405.954L35.3417 403.593L23.9289 406.544Z" fill="black"/>
<path d="M27.3724 390.704L27.5692 391.59C27.8644 391.885 28.2579 392.081 28.9466 392.278C29.5369 392.475 30.324 392.672 31.3079 392.869C32.2917 393.065 32.9805 393.262 33.4724 393.36C33.9643 393.459 34.2595 393.656 34.2595 393.852L34.7514 396.312L33.8659 396.509L33.5708 395.82C33.4724 395.623 33.2756 395.525 32.9805 395.328C32.5869 395.23 32.095 395.033 31.3079 394.738C30.4224 394.541 29.7337 394.246 29.1434 394.049C28.5531 393.852 28.1595 393.557 27.8644 393.262C27.766 394.148 27.4708 394.836 26.8805 395.525C26.2902 396.115 25.6015 396.509 24.6176 396.706C23.1418 397.001 22.0596 396.804 21.2725 396.017C20.4854 395.23 19.9935 394.049 19.6983 392.475C19.5999 392.081 19.5999 391.688 19.5016 391.098C19.4032 390.507 19.4032 390.015 19.3048 389.72L18.8129 387.064L19.6983 386.867L20.1903 388.343L31.6031 386.08L31.4063 384.309L32.2917 384.112L33.374 389.523L32.4885 389.72L31.9966 387.949L27.0773 388.933L27.3724 390.704ZM20.387 390.802C20.387 391.393 20.4854 391.885 20.5838 392.278C20.7806 393.262 21.0757 393.951 21.6661 394.344C22.2564 394.738 22.9451 394.836 24.0273 394.64C25.0112 394.443 25.6999 394.049 26.1918 393.459C26.6838 392.869 26.6837 392.081 26.5854 391.098C26.3886 390.114 26.2902 389.523 26.0934 389.13L20.4854 390.212L20.387 390.802Z" fill="black"/>
<path d="M18.5178 380.177L19.1081 383.325H23.0435L23.2403 384.506L18.2226 384.998L16.4517 373.487L21.371 372.503L21.5677 373.683L17.8291 374.864L18.2226 378.111L29.8322 376.34L29.6354 373.683L30.5209 373.585L31.6031 380.669L30.7176 380.767L30.1274 378.406L18.5178 380.177Z" fill="black"/>
<path d="M28.5531 363.058C28.0611 364.041 27.274 364.927 26.2902 365.517C25.3063 366.108 24.0273 366.501 22.6499 366.599C21.2725 366.698 19.9934 366.599 18.9112 366.108C17.829 365.616 16.8451 364.927 16.1564 363.943C15.4677 362.959 15.0741 361.877 14.9758 360.598C14.8774 359.614 14.8774 358.433 15.0741 357.154L15.1725 356.564L18.5177 356.367L18.6161 357.646L16.2548 358.335C16.1564 358.532 16.058 358.827 15.9596 359.319C15.8612 359.712 15.8612 360.303 15.9596 360.893C16.058 361.68 16.3532 362.369 16.8451 362.959C17.337 363.549 18.0257 363.943 19.0096 364.238C19.8951 364.533 20.9773 364.533 22.2564 364.435C23.437 364.337 24.4208 364.041 25.4047 363.648C26.2902 363.254 27.0773 362.664 27.5692 361.975C28.0611 361.287 28.2579 360.5 28.1595 359.516C28.0611 358.827 27.9627 358.335 27.8643 358.04C27.766 357.745 27.5692 357.45 27.274 357.154L25.4047 356.564V355.383L28.0611 355.58C28.0611 355.875 28.2579 356.171 28.4547 356.662C28.6514 357.056 28.7498 357.548 28.9466 357.941C29.1434 358.335 29.1434 358.827 29.2417 359.516C29.2417 360.795 29.045 361.975 28.5531 363.058Z" fill="black"/>
<path d="M14.1887 348.988L15.0742 348.89L15.3694 350.661L24.716 350.169L22.3547 348.792L15.4677 343.774H14.9758L14.8774 345.447L13.9919 345.545L13.6968 340.429L14.5822 340.33L14.8774 341.806L26.487 341.216L26.5854 339.642H27.4708L27.766 344.856H26.8805L26.5854 343.184L17.0419 343.676L19.3048 344.955L26.2902 350.071H26.9789L27.0773 348.3L27.9628 348.201L28.2579 353.416L27.3724 353.514L27.0773 351.94L15.4677 352.53L15.3694 354.006L14.4839 354.104L14.1887 348.988Z" fill="black"/>
<path d="M13.5 328.721L18.4193 328.524V329.803L14.6806 330.393L14.5823 334.526L26.3886 334.329L26.5854 331.082H27.4708L27.5692 338.363H26.6838L26.487 336.297L14.8774 336.493L14.6806 338.461H13.7952L13.5 328.721Z" fill="black"/>
<path d="M14.6806 325.474L14.3855 326.95H13.5L13.6968 321.834H14.5823L14.779 323.408L19.7967 323.605L19.9935 317.013L14.9758 316.816L14.6806 318.292H13.7952L13.9919 313.274H14.8774L15.0742 314.75L26.6838 315.144L26.8805 313.668H27.766L27.5692 318.686H26.6838L26.5854 317.111L21.1741 316.915L20.9773 323.506L26.3886 323.703L26.5854 322.129H27.4708L27.2741 327.245H26.3886L26.2902 325.769L14.6806 325.474Z" fill="black"/>
<path d="M14.287 306.486L14.4837 304.42L27.6675 300.878L27.9626 299.697L28.8481 299.796L28.4546 304.715L27.5691 304.616L27.4707 303.042L24.6175 303.731L24.224 309.142L26.8804 310.224L27.1756 308.65L28.061 308.749L27.7659 313.176L26.8804 313.078L26.782 311.897L14.287 306.486ZM17.4353 305.6L15.7628 305.895L17.4353 306.486L23.2401 308.847L23.6337 304.125L17.4353 305.6Z" fill="black"/>
<path d="M24.4209 294.482C26.0934 294.974 27.3725 295.466 28.1596 296.057C28.5531 296.352 28.8483 296.745 29.045 297.04C29.2418 297.434 29.2418 297.828 29.2418 298.221C29.1434 298.811 29.045 299.205 28.9467 299.5L27.4709 299.402C27.5692 299.107 27.5693 298.615 27.6676 298.024C27.6676 297.828 27.6676 297.532 27.5693 297.434C27.4709 297.237 27.2741 297.04 27.0773 296.844C25.6999 295.761 22.7483 294.876 18.2226 294.384L16.7468 294.187L16.2549 296.253L15.3694 296.155L16.6484 285.431L17.5339 285.529V287.3L29.045 288.678L29.4386 286.907L30.3241 287.005L29.6354 292.711L28.7499 292.613V290.645L17.2387 289.268L16.7468 293.007L18.4193 293.203C20.7806 293.695 22.7483 293.99 24.4209 294.482Z" fill="black"/>
<path d="M23.2402 278.445C23.5353 276.97 24.0273 275.887 24.9127 275.199C25.7982 274.51 26.7821 274.313 28.0611 274.51C29.4385 274.805 30.5208 275.396 31.1111 276.478C31.7014 277.462 31.8982 278.741 31.603 280.216C31.603 280.413 31.5046 280.61 31.5046 280.807C31.4062 281.004 31.4062 281.2 31.3078 281.495C31.1111 282.184 31.0127 282.774 30.9143 283.365L30.5208 285.824L29.6353 285.628L29.7336 284.053L18.2225 281.987L17.7306 283.463L16.8451 283.266L17.7306 278.052L18.616 278.249L18.5176 280.118L22.7483 280.905L23.2402 278.445ZM19.895 265.95L20.7805 266.147L20.6821 267.918L32.0949 269.984L32.5869 268.312L33.4723 268.508L32.4885 273.92L31.603 273.723L31.7014 271.952L20.2886 269.886L19.7967 271.558L18.9112 271.362L19.895 265.95ZM30.4224 281.397C30.5207 281.2 30.5208 280.807 30.6191 280.413C30.8159 279.429 30.6191 278.544 30.1272 277.855C29.6353 277.166 28.8482 276.773 27.7659 276.576C26.7821 276.379 25.8966 276.576 25.3063 276.97C24.716 277.462 24.3224 278.15 24.1257 279.134L23.8305 281.004L30.0288 282.086C30.2256 281.889 30.324 281.594 30.4224 281.397Z" fill="black"/>
<path d="M22.9452 257.784L22.3548 259.162L21.4694 258.965L22.7484 254.046L23.6339 254.243L23.4371 255.817L28.3564 256.997L29.9306 250.602L25.0113 249.422L24.4209 250.799L23.5355 250.602L24.7161 245.781L25.6016 245.978L25.5032 247.454L36.8176 250.307L37.4079 248.93L38.2934 249.126L37.1127 254.046L36.2273 253.849L36.4241 252.275L31.1112 250.996L29.537 257.391L34.8499 258.67L35.4402 257.096L36.3257 257.293L35.0467 262.31L34.1612 262.113L34.3579 260.638L22.9452 257.784Z" fill="black"/>
<path d="M26.6837 239.19L27.274 237.222L40.9497 236.632L41.4416 235.549L42.3271 235.844L40.8513 240.567L39.9658 240.272L40.261 238.698H37.3094L35.7352 243.912L38.0965 245.585L38.7852 244.109L39.6707 244.404L38.3917 248.635L37.5062 248.34L37.7029 247.159L26.6837 239.19ZM29.8321 238.993H28.1595L29.6353 239.878L34.8497 243.42L36.2271 238.894L29.8321 238.993Z" fill="black"/>
<path d="M32.6852 224.628L31.7998 226.498L30.9143 226.202L32.6852 221.578L41.4416 222.07L43.9013 222.365L41.8352 220.988L34.8498 215.577L36.6207 210.953L37.5062 211.248L37.0143 213.216L48.427 215.872L49.2141 214.396L50.0996 214.691L48.1319 219.807L47.2464 219.512L47.6399 217.84L39.4739 215.675L35.932 214.79L38.1949 216.462L46.2625 222.857L45.869 224.038L36.4239 223.743L32.6852 223.546L35.932 225.12L43.5077 228.761L44.2948 227.088L45.1803 227.383L43.5077 231.909L42.6222 231.614L43.0158 230.04L32.6852 224.628Z" fill="black"/>
<path d="M39.3755 204.361L40.1626 202.491L53.8382 203.475L54.4285 202.491L55.314 202.885L53.3463 207.411L52.4608 207.017L52.9528 205.541L50.0996 205.246L47.9351 210.264L50.0996 212.133L50.8866 210.756L51.7721 211.149L50.0012 215.183L49.1157 214.79L49.4109 213.609L39.3755 204.361ZM42.5238 204.459L40.8513 204.262L42.2287 205.345L46.9512 209.477L48.8206 205.148L42.5238 204.459Z" fill="black"/>
<path d="M44.7868 195.408L43.9014 196.588L43.0159 196.195L44.0981 193.932C44.2949 193.538 44.4917 193.145 44.5901 192.751C44.8852 192.161 45.082 191.571 45.3772 190.98C46.1642 189.406 47.0497 188.324 47.9352 187.93C48.8206 187.537 49.9029 187.635 51.0835 188.226C51.969 188.619 52.6577 189.209 53.1497 189.997C53.6416 190.784 53.8383 191.571 53.8383 192.456C53.8383 193.342 53.6416 194.326 53.1497 195.211C52.9529 195.506 52.8545 195.9 52.6577 196.195C52.461 196.49 52.3625 196.687 52.3625 196.785L56.1012 198.556L57.3802 196.392L58.1674 196.785L55.5109 202.295L54.7238 201.901L55.2158 200.425L44.7868 195.408ZM52.3625 194.817C52.7561 193.932 52.8545 193.047 52.5593 192.259C52.2642 191.472 51.5755 190.784 50.2965 190.095C49.3126 189.603 48.5255 189.505 47.8368 189.8C47.1481 190.095 46.6562 190.685 46.0658 191.768C45.8691 192.161 45.7707 192.555 45.5739 192.948C45.4755 193.243 45.3772 193.342 45.3772 193.44L51.3787 196.293C51.6738 196.097 51.969 195.605 52.3625 194.817Z" fill="black"/>
<path d="M61.5124 188.914C60.5286 189.505 59.4463 189.701 58.2657 189.701C57.085 189.603 55.9044 189.308 54.6254 188.619C53.4448 187.93 52.4609 187.143 51.7722 186.061C51.0835 185.077 50.7883 183.897 50.6899 182.716C50.6899 181.535 50.8867 180.355 51.5754 179.272C52.0673 178.387 52.6577 177.501 53.6415 176.419L54.0351 175.927L56.8883 177.698L56.2979 178.78L53.9367 178.092C53.7399 178.19 53.4448 178.387 53.1496 178.682C52.8544 178.977 52.5593 179.469 52.2641 179.961C51.8706 180.65 51.7722 181.437 51.8706 182.126C51.9689 182.913 52.3625 183.601 52.9528 184.388C53.5431 185.077 54.4286 185.766 55.5109 186.356C56.4947 186.946 57.577 187.242 58.5608 187.438C59.5447 187.635 60.4301 187.537 61.2172 187.242C62.0043 186.946 62.5947 186.356 63.0866 185.569C63.3818 184.979 63.5785 184.487 63.6769 184.192C63.7753 183.897 63.7753 183.503 63.6769 183.208L62.3979 181.634L63.0866 180.65L65.2511 182.322C65.1527 182.519 65.0543 182.913 64.9559 183.503C64.8575 183.995 64.7591 184.388 64.6607 184.782C64.5624 185.176 64.3656 185.667 64.0705 186.258C63.2834 187.438 62.3979 188.324 61.5124 188.914Z" fill="black"/>
<path d="M64.5624 157.529L65.3495 158.021L64.5624 159.694L72.4333 164.81L71.3511 162.252L68.793 154.184L68.3995 153.889L67.3172 155.168L66.5302 154.676L69.3834 150.347L70.1704 150.839L69.5801 152.216L79.3204 158.611L80.3042 157.431L81.0913 157.923L78.2381 162.252L77.451 161.76L78.2381 160.284L70.2688 155.069L71.3511 157.431L73.9091 165.695L74.4994 166.089L75.5817 164.711L76.3688 165.203L73.5156 169.631L72.7285 169.139L73.4172 167.761L63.6769 161.366L62.6931 162.448L61.906 161.956L64.5624 157.529Z" fill="black"/>
<path d="M71.843 147.297C72.0398 146.805 72.2366 146.313 72.4333 145.92C72.6301 145.526 72.8269 145.231 73.0236 144.936C73.9091 143.657 74.893 142.87 75.7785 142.476C76.6639 142.083 77.5494 142.279 78.4349 142.87C79.2219 143.46 79.7139 144.149 79.8123 145.034C79.9107 145.92 79.8123 146.707 79.4187 147.592C80.1074 146.707 80.8945 146.117 81.78 146.018C82.6655 145.821 83.4526 146.018 84.2397 146.608C85.3219 147.396 85.9122 148.379 86.0106 149.462C86.109 150.544 85.6171 151.823 84.5348 153.299C84.1413 153.889 83.6493 154.381 83.2558 154.774C82.8623 155.168 82.4687 155.463 82.1736 155.66C81.8784 155.857 81.6816 155.955 81.6816 156.054L79.222 153.889L79.8123 153.102L82.0752 154.086C82.6655 153.791 83.3542 153.2 83.9445 152.315C84.4364 151.626 84.6332 150.937 84.4364 150.347C84.2396 149.658 83.8461 149.068 82.9606 148.478C82.3703 147.986 81.6816 147.789 80.9929 147.887C80.3042 147.986 79.6155 148.478 78.9268 149.363L78.1397 150.446L77.2542 149.855L77.8446 148.97C78.1397 148.576 78.3365 148.084 78.4349 147.592C78.5332 147.1 78.5333 146.608 78.3365 146.117C78.1397 145.625 77.7462 145.231 77.2542 144.838C76.5655 144.346 75.9752 144.149 75.3849 144.346C74.7946 144.542 74.3027 144.936 73.8107 145.526C73.5156 146.018 73.3188 146.412 73.122 146.805C72.9252 147.199 73.0236 147.494 73.122 147.691L74.3027 148.97L73.6139 149.954L71.1543 148.379C71.3511 148.183 71.5479 147.789 71.843 147.297Z" fill="black"/>
<path d="M82.1735 134.9L80.9929 135.983L80.3042 135.392L81.8784 133.424C82.1735 133.129 82.4687 132.637 82.8622 132.145C83.1574 131.654 83.4525 131.26 83.6493 131.063C84.7316 129.686 85.7154 128.899 86.6009 128.702C87.4864 128.505 88.3719 128.702 89.1589 129.292C89.8476 129.883 90.2412 130.571 90.438 131.358C90.6347 132.145 90.438 132.933 90.0444 133.72C90.7331 132.736 91.6186 132.244 92.5041 132.047C93.3895 131.85 94.275 132.145 94.9637 132.736C95.9476 133.523 96.4395 134.507 96.5379 135.687C96.6363 136.868 95.9476 138.245 94.6685 139.918C94.3734 140.312 94.0782 140.607 93.7831 140.902C93.0944 141.591 92.7992 142.082 92.6025 142.181L91.0283 144.149L90.3396 143.558L91.1267 142.279L82.1735 134.9ZM87.9783 135.687L88.667 134.9C89.2573 134.212 89.4541 133.523 89.3557 132.933C89.2573 132.342 88.8638 131.654 88.1751 131.063C87.4864 130.473 86.896 130.276 86.3057 130.375C85.7154 130.473 85.0267 130.965 84.4364 131.752C84.1412 132.145 83.8461 132.441 83.6493 132.834L83.4525 133.129L87.4864 136.376C87.388 136.376 87.6831 136.081 87.9783 135.687ZM93.8815 139.229C94.6686 138.245 95.0621 137.36 94.9637 136.573C94.8653 135.786 94.4718 135.097 93.7831 134.507C92.996 133.916 92.3073 133.621 91.717 133.72C91.0283 133.818 90.4379 134.31 89.7492 135.195C88.9622 136.179 88.4702 136.77 88.2734 137.065L92.6025 140.607C92.7992 140.508 93.1928 140.016 93.8815 139.229Z" fill="black"/>
<path d="M91.6187 121.618L92.9961 120.044L105.688 125.16L106.573 124.373L107.262 124.963L104.015 128.702L103.327 128.112L104.212 126.833L101.556 125.652L97.9154 129.784L99.3911 132.244L100.572 131.162L101.26 131.752L98.3089 135.097L97.6202 134.507L98.2105 133.523L91.6187 121.618ZM94.6686 122.7L93.0944 122.012L94.0783 123.487L97.325 128.899L100.473 125.357L94.6686 122.7Z" fill="black"/>
<path d="M108.935 122.209C107.852 122.504 106.77 122.405 105.589 122.11C104.507 121.717 103.425 121.028 102.343 120.044C101.359 119.06 100.67 117.978 100.277 116.896C99.883 115.813 99.883 114.534 100.178 113.452C100.473 112.272 101.064 111.288 101.949 110.304C102.638 109.615 103.523 108.926 104.704 108.139L105.196 107.746L107.459 110.206L106.573 111.091L104.507 109.812C104.31 109.812 104.015 110.009 103.622 110.206C103.228 110.402 102.835 110.796 102.441 111.189C101.851 111.78 101.556 112.468 101.457 113.157C101.359 113.944 101.457 114.731 101.851 115.617C102.244 116.502 102.933 117.388 103.818 118.175C104.704 118.962 105.589 119.651 106.475 120.044C107.36 120.438 108.246 120.634 109.131 120.634C110.017 120.634 110.705 120.241 111.394 119.552C111.886 119.06 112.181 118.667 112.28 118.372C112.476 118.076 112.575 117.683 112.575 117.388L111.788 115.518L112.673 114.731L114.247 116.896C114.051 117.093 113.854 117.388 113.657 117.88C113.46 118.273 113.264 118.667 112.968 119.06C112.772 119.454 112.378 119.847 111.984 120.241C111.099 121.323 110.017 121.913 108.935 122.209Z" fill="black"/>
<path d="M113.755 102.531C113.559 101.449 113.559 100.367 113.854 99.383C114.149 98.3991 114.641 97.612 115.428 96.825C116.313 95.9395 117.297 95.4475 118.281 95.2508C119.265 95.054 120.347 95.1524 121.331 95.6443C122.315 96.1363 123.299 96.825 124.283 97.7104C125.365 98.7927 126.054 99.9733 126.447 101.154C126.841 102.335 126.939 103.417 126.644 104.499C126.349 105.581 125.857 106.467 125.07 107.254C124.184 108.139 123.2 108.631 122.118 108.828C121.134 109.025 120.052 108.926 119.068 108.533C118.084 108.139 117.002 107.451 116.117 106.467L113.952 108.533L117.691 112.468L118.97 111.484L119.56 112.173L115.822 115.715L115.231 115.026L116.215 113.846L108.246 105.385L106.967 106.27L106.278 105.581L109.918 102.138L110.607 102.827L109.623 104.007L113.067 107.647L115.33 105.581C114.542 104.696 114.051 103.712 113.755 102.531ZM115.133 100.859C115.33 102.138 116.117 103.515 117.592 104.991C118.871 106.27 120.052 107.156 121.331 107.451C122.61 107.746 123.594 107.549 124.578 106.664C125.463 105.876 125.759 104.794 125.463 103.614C125.168 102.433 124.381 101.056 123.004 99.5798C121.725 98.3008 120.544 97.4153 119.363 97.1201C118.183 96.825 117.101 97.0217 116.215 97.8088C115.33 98.5959 114.936 99.5798 115.133 100.859Z" fill="black"/>
<path d="M132.547 92.5945C133.334 92.7913 134.318 93.0864 135.597 93.3816C136.483 93.6767 137.073 93.8735 137.565 93.9719C138.057 94.0703 138.254 94.0703 138.45 93.9719L139.139 93.6768L139.729 94.3655L137.958 95.8412C137.762 96.038 137.368 96.038 136.778 95.9396C136.188 95.8412 135.4 95.5461 134.318 95.1525C133.138 94.6606 132.154 94.3655 131.465 94.1687C130.776 93.9719 130.284 94.0703 129.989 94.2671L129.104 95.0542L132.547 99.088L133.925 98.2025L134.515 98.8912L130.579 102.236L129.989 101.548L131.071 100.465L123.594 91.6106L122.315 92.3977L121.725 91.709L125.562 88.4623L126.152 89.151L125.07 90.3316L128.513 94.4638L129.694 93.3816L129.104 86.7897L127.726 87.6752L127.136 86.9865L130.678 84.0349L131.268 84.7236L130.284 85.8059L130.678 92.5945C131.071 92.4961 131.76 92.4961 132.547 92.5945Z" fill="black"/>
<path d="M141.894 91.9058C140.812 92.0042 139.828 91.709 138.844 91.1187C137.86 90.5284 136.876 89.7413 135.991 88.5607C135.105 87.3801 134.515 86.2978 134.318 85.1172C134.121 83.9365 134.121 82.8543 134.515 81.772C134.908 80.6898 135.597 79.8043 136.483 79.1156C138.057 77.935 139.533 77.5414 141.107 77.8366C142.681 78.1318 144.157 79.214 145.436 80.8866C146.321 82.0672 146.912 83.2478 147.108 84.4285C147.305 85.6091 147.305 86.7897 146.912 87.872C146.518 88.9542 145.829 89.8397 144.944 90.5284C143.96 91.4139 142.976 91.8074 141.894 91.9058ZM135.794 83.0511C135.892 84.3301 136.581 85.7075 137.762 87.38C138.942 88.8558 140.123 89.8397 141.304 90.2333C142.484 90.7252 143.566 90.5284 144.55 89.7413C145.534 89.0526 145.928 87.9704 145.829 86.6913C145.731 85.4123 145.042 83.9365 143.763 82.3624C142.583 80.8866 141.402 79.9027 140.221 79.5092C139.041 79.1156 137.958 79.214 136.975 80.0011C136.089 80.7882 135.696 81.772 135.794 83.0511Z" fill="black"/>
<path d="M144.845 74.4913L143.468 75.18L142.976 74.3929L145.042 72.9171C145.436 72.7204 145.829 72.3268 146.321 71.9333C146.813 71.5397 147.108 71.2446 147.403 71.1462C148.781 70.1623 149.961 69.6704 150.847 69.6704C151.732 69.6704 152.52 70.064 153.11 70.9494C153.602 71.6381 153.897 72.4252 153.799 73.2123C153.7 73.9994 153.405 74.7865 152.815 75.3768C153.799 74.6881 154.684 74.3929 155.57 74.3929C156.455 74.3929 157.242 74.8849 157.832 75.7703C158.521 76.7542 158.816 77.9348 158.521 79.0171C158.226 80.1977 157.242 81.3784 155.57 82.559C155.176 82.8541 154.881 83.0509 154.487 83.2477C153.7 83.7396 153.208 84.1332 153.011 84.2315L150.945 85.7073L150.453 85.0186L151.634 83.9364L144.845 74.4913ZM150.257 76.8526L151.142 76.2623C151.831 75.7703 152.224 75.18 152.323 74.4913C152.421 73.8026 152.224 73.1139 151.634 72.4252C151.142 71.7365 150.552 71.343 149.961 71.2446C149.371 71.1462 148.584 71.4414 147.699 72.0317C147.305 72.3268 147.01 72.622 146.616 72.9171L146.321 73.2123L149.371 77.4429C149.47 77.3445 149.765 77.1477 150.257 76.8526ZM154.881 81.8703C155.865 81.1816 156.455 80.3945 156.652 79.6074C156.849 78.8203 156.652 78.1316 156.061 77.2461C155.471 76.459 154.881 76.0655 154.29 75.9671C153.602 75.8687 152.815 76.1639 151.929 76.8526C150.847 77.5413 150.257 78.0332 149.961 78.23L153.208 82.7558C153.503 82.8541 154.094 82.4606 154.881 81.8703Z" fill="black"/>
<path d="M168.753 57.3721L169.245 58.1592L168.065 59.2414L174.165 69.08L175.739 68.2929L176.231 69.08L171.803 71.8348L171.311 71.0477L172.492 70.0639L166.294 60.1269L161.178 63.2752L167.376 73.2122L168.95 72.4251L169.442 73.2122L165.015 75.967L164.523 75.18L165.703 74.1961L159.603 64.3575L158.128 65.0462L157.636 64.2591L168.753 57.3721Z" fill="black"/>
<path d="M179.281 66.5221C178.198 66.4237 177.215 66.0302 176.329 65.3415C175.444 64.6528 174.656 63.6689 173.968 62.3899C173.279 61.1109 172.886 59.9302 172.787 58.6512C172.689 57.4706 172.984 56.3883 173.476 55.4045C173.968 54.4206 174.755 53.6335 175.837 53.0432C177.51 52.0594 179.084 51.8626 180.658 52.4529C182.134 53.0432 183.413 54.2238 184.495 56.1916C185.184 57.4706 185.577 58.7496 185.676 59.9302C185.774 61.2093 185.479 62.2915 184.889 63.2754C184.298 64.2592 183.511 65.0463 182.527 65.6366C181.347 66.3253 180.363 66.6205 179.281 66.5221ZM174.46 56.7819C174.361 58.0609 174.853 59.5367 175.837 61.3077C176.723 62.9802 177.805 64.0625 178.887 64.6528C179.969 65.2431 181.15 65.2431 182.134 64.6528C183.216 64.0625 183.708 63.177 183.806 61.7996C183.905 60.5206 183.413 58.9464 182.429 57.1754C181.544 55.5029 180.461 54.4206 179.379 53.8303C178.297 53.24 177.215 53.24 176.132 53.8303C175.148 54.6174 174.558 55.6013 174.46 56.7819Z" fill="black"/>
<path d="M190.693 55.3059C191.284 56.9784 191.481 58.2574 191.382 59.3397C191.382 59.8316 191.185 60.3235 190.989 60.6187C190.792 60.9139 190.497 61.209 190.103 61.4058C189.611 61.701 189.119 61.7993 188.922 61.8977L188.135 60.6187C188.431 60.5203 188.824 60.3235 189.414 60.0284C189.611 59.93 189.808 59.8316 189.906 59.6348C190.005 59.4381 190.103 59.2413 190.103 58.9461C190.3 57.1752 189.316 54.322 187.25 50.1898L186.561 48.9108L184.495 49.6978L184.102 48.9108L193.743 44.0898L194.137 44.8769L192.661 45.8608L197.876 56.2897L199.647 55.601L200.04 56.3881L194.924 58.9461L194.53 58.159L196.203 57.0768L190.989 46.6479L187.643 48.3204L188.431 49.7962C189.316 51.8623 190.103 53.7317 190.693 55.3059Z" fill="black"/>
<path d="M197.482 43.4996L196.006 43.8932L195.613 43.0077L204.271 39.0723L205.746 41.6303L204.763 42.0238L203.484 40.5481L199.253 42.319L201.417 47.1399L204.271 45.7625L203.877 44.2867L204.861 43.8932L206.632 47.8286L205.648 48.2222L204.763 46.8448L201.909 48.1238L204.172 53.2399L208.895 50.8786L208.796 48.3206L209.977 48.2222L210.863 51.3705L201.417 55.6011L201.024 54.814L202.401 54.0269L197.482 43.4996Z" fill="black"/>
<path d="M211.748 37.203L208.796 38.482L209.682 42.3191L208.501 42.811L206.927 38.0885L217.75 33.7595L219.816 38.2853L218.733 38.6788L216.667 35.2353L213.617 36.3176L218.045 47.2384L220.603 46.4513L220.898 47.3368L214.306 49.9932L214.011 49.1078L216.175 48.0255L211.748 37.203Z" fill="black"/>
<path d="M227.883 38.3835L226.998 38.6787C226.801 38.9739 226.604 39.4658 226.506 40.0561C226.407 40.7448 226.309 41.5319 226.309 42.5158C226.211 43.4996 226.211 44.1883 226.112 44.6803C226.014 45.1722 225.916 45.4674 225.719 45.5657L223.358 46.4512L223.062 45.5657L223.653 45.1722C223.849 45.0738 223.948 44.877 224.046 44.4835C224.145 44.0899 224.243 43.4996 224.341 42.7125C224.44 41.8271 224.637 41.04 224.735 40.4497C224.932 39.8593 225.128 39.3674 225.424 39.0723C224.538 39.1706 223.751 38.9739 223.062 38.4819C222.374 37.99 221.882 37.3013 221.587 36.4158C221.095 35.0384 221.193 33.8578 221.783 33.0707C222.472 32.1852 223.554 31.4965 225.129 31.0046C225.424 30.9062 225.916 30.7094 226.506 30.611C227.096 30.4143 227.49 30.3159 227.785 30.2175L230.343 29.332L230.638 30.2175L229.261 30.9062L233.098 41.7287L234.77 41.3351L235.065 42.2206L229.851 44.0899L229.556 43.2045L231.228 42.4174L229.556 37.6948L227.883 38.3835ZM226.801 31.3981C226.211 31.4965 225.817 31.6933 225.325 31.7917C224.44 32.0868 223.751 32.5788 223.456 33.0707C223.062 33.661 223.062 34.4481 223.456 35.432C223.751 36.4158 224.341 37.0061 224.932 37.3997C225.62 37.6948 226.407 37.6948 227.293 37.3997C228.277 37.1045 228.867 36.8094 229.162 36.711L227.293 31.2998L226.801 31.3981Z" fill="black"/>
<path d="M237.033 28.1515L233.983 29.2338L234.475 33.1692L233.295 33.5628L232.114 28.6435L243.232 25.2L244.904 29.9225L243.822 30.2176L242.051 26.6757L238.903 27.5612L242.346 38.8756L244.904 38.2853L245.199 39.1708L238.411 41.2369L238.115 40.3514L240.378 39.4659L237.033 28.1515Z" fill="black"/>
<path d="M255.431 35.6288C254.349 35.2352 253.464 34.6449 252.677 33.7594C251.89 32.874 251.398 31.6933 251.004 30.3159C250.709 28.9385 250.709 27.6595 251.004 26.4789C251.299 25.2982 251.89 24.3144 252.775 23.5273C253.66 22.7402 254.644 22.1499 255.923 21.8547C256.809 21.658 257.989 21.4612 259.367 21.4612H259.957L260.548 24.8063L259.367 25.1015L258.383 22.937C258.186 22.8386 257.891 22.7402 257.399 22.7402C256.907 22.7402 256.415 22.8386 255.825 22.937C255.038 23.1337 254.448 23.5273 253.956 24.1176C253.464 24.7079 253.169 25.495 252.972 26.3805C252.873 27.3643 252.873 28.3482 253.169 29.6272C253.464 30.8079 253.857 31.7917 254.349 32.5788C254.841 33.3659 255.53 34.0546 256.317 34.4481C257.104 34.8417 257.891 34.9401 258.777 34.7433C259.465 34.5465 259.859 34.4481 260.252 34.2514C260.547 34.0546 260.843 33.8578 261.039 33.5627L261.335 31.5949L262.515 31.4966L262.712 34.153C262.417 34.2514 262.122 34.4481 261.63 34.6449C261.236 34.8417 260.843 35.1368 260.449 35.2352C260.056 35.432 259.564 35.5304 258.973 35.7272C257.694 36.0223 256.514 36.0223 255.431 35.6288Z" fill="black"/>
<path d="M267.238 19.395L267.434 20.2805L265.663 20.8708L267.434 30.1191L268.517 27.561L272.55 20.0837L272.452 19.5918L270.78 19.6901L270.583 18.8047L275.6 17.8208L275.797 18.7063L274.42 19.1982L276.683 30.611L278.257 30.5126L278.454 31.3981L273.338 32.3819L273.141 31.4965L274.715 31.0045L272.846 21.6579L271.862 24.0191L267.73 31.5949L267.828 32.2836L269.599 32.0868L269.796 32.9723L264.581 33.9561L264.384 33.0706L265.86 32.5787L263.597 21.1659L262.122 21.2643L261.925 20.3788L267.238 19.395Z" fill="black"/>
<path d="M287.309 15.9514L288.194 20.7723L286.915 20.9691L285.833 17.3288L281.701 17.8207L283.472 29.5287L286.718 29.2335L286.817 30.119L279.536 31.2013L279.438 30.3158L281.405 29.8239L279.634 18.4111H277.667L277.568 17.5256L287.309 15.9514Z" fill="black"/>
<path d="M290.752 16.6403L289.276 16.5419L289.178 15.6565L294.195 15.0661L294.294 15.9516L292.72 16.3452L293.31 21.3628L299.803 20.6741L299.213 15.6565L297.639 15.5581L297.541 14.6726L302.558 14.0823L302.657 14.9677L301.181 15.3613L302.46 26.8725H303.936L304.034 27.7579L299.016 28.3483L298.918 27.4628L300.394 27.0692L299.803 21.658L293.31 22.3467L293.9 27.7579H295.573L295.671 28.6434L290.555 29.2337L290.457 28.3483L291.933 27.9547L290.752 16.6403Z" fill="black"/>
<path d="M309.445 13.6887L311.511 13.5903L316.824 26.1837L318.005 26.2821L318.103 27.1676L313.184 27.4628L313.086 26.5773L314.66 26.2821L313.577 23.5273L308.166 23.8225L307.478 26.6757L309.052 26.7741L309.15 27.6595L304.723 27.9547L304.624 27.0692L305.805 26.7741L309.445 13.6887ZM310.823 16.5419L310.232 14.9677L309.937 16.6403L308.461 22.7402L313.184 22.4451L310.823 16.5419Z" fill="black"/>
<path d="M322.727 21.9531C322.531 23.6257 322.137 25.0031 321.645 25.8886C321.35 26.3805 321.055 26.6757 320.76 26.8724C320.465 27.0692 320.071 27.1676 319.579 27.1676C318.989 27.1676 318.497 27.1676 318.202 27.0692L318.005 25.5934C318.3 25.5934 318.792 25.5934 319.382 25.5934C319.579 25.5934 319.776 25.495 319.973 25.3966C320.169 25.2983 320.268 25.1015 320.465 24.8063C321.35 23.3305 321.842 20.2806 321.744 15.6564V14.1806H319.677V13.1968L330.5 13V13.9839L328.729 14.279L328.926 25.8886L330.795 26.0853V26.9708L324.99 27.0692V26.1837L326.958 25.987L326.761 14.3774L322.924 14.4758V16.1484C323.023 18.2145 322.924 20.2806 322.727 21.9531Z" fill="black"/>
<path d="M338.469 18.608C339.945 18.7064 341.126 19.0999 341.913 19.7886C342.7 20.4773 343.093 21.5596 342.995 22.8386C342.897 24.3144 342.405 25.3966 341.519 26.0853C340.535 26.8724 339.355 27.1676 337.879 27.1676C337.682 27.1676 337.486 27.1676 337.289 27.1676C337.092 27.1676 336.895 27.1676 336.6 27.0692C335.911 26.9708 335.223 26.9708 334.632 26.8724L332.074 26.7741V25.8886L333.648 25.7902L334.042 14.1806L332.566 13.8855V13L337.879 13.1968V14.0822L336.01 14.279L335.813 18.608H338.469ZM336.502 26.0853C336.698 26.0853 337.092 26.1837 337.485 26.1837C338.568 26.1837 339.355 25.987 339.945 25.3966C340.535 24.8063 340.831 24.0192 340.831 22.937C340.831 21.8548 340.634 21.166 340.044 20.5757C339.552 20.0838 338.764 19.7886 337.682 19.6903H335.813L335.616 25.987C336.01 25.987 336.305 26.0853 336.502 26.0853ZM350.374 13.5903V14.4758L348.603 14.6726L348.21 26.2821L349.98 26.5773V27.4628L344.471 27.266V26.3805L346.242 26.2821L346.635 14.6726L344.864 14.3774V13.4919L350.374 13.5903Z" fill="black"/>
<path d="M358.835 15.4597L357.359 15.0661L357.458 14.1807L362.476 14.6726L362.377 15.5581L360.803 15.6565L360.311 20.6741L366.903 21.3629L367.395 16.3452L365.919 15.9516L366.017 15.0661L371.035 15.5581L370.937 16.4435L369.461 16.5419L368.28 28.1515L369.756 28.4466L369.658 29.3321L364.64 28.8402L364.738 27.9547H366.313L366.903 22.5435L360.311 21.8548L359.721 27.266L361.295 27.6596L361.197 28.545L356.08 27.9547L356.179 27.0692H357.753L358.835 15.4597Z" fill="black"/>
<path d="M377.725 16.4436L379.791 16.7388L382.349 30.2177L383.432 30.6112L383.333 31.4967L378.414 30.7096L378.512 29.8241L380.087 29.9225L379.693 26.9709L374.282 26.1838L373.003 28.7419L374.577 29.1354L374.479 30.0209L370.051 29.3322L370.15 28.4467H371.33L377.725 16.4436ZM378.512 19.592L378.316 17.9194L377.627 19.4936L374.872 25.1016L379.595 25.7903L378.512 19.592Z" fill="black"/>
<path d="M392.975 20.3791L391.007 19.6904L391.204 18.8049L396.025 19.8872L396.812 28.6435L396.911 31.1032L397.993 28.9387L402.322 21.2646L407.143 22.3468L406.946 23.2323L404.88 23.0355L403.798 34.6451L405.372 35.2354L405.175 36.1209L399.961 34.9403L400.157 34.0548L401.83 34.2516L402.814 25.8887L403.207 22.2484L401.83 24.7081L396.714 33.5628L395.533 33.2677L394.549 23.8226L394.254 20.1823L393.172 23.6259L390.614 31.6935L392.385 32.2838L392.188 33.1693L387.466 32.0871L387.662 31.2016L389.237 31.3984L392.975 20.3791Z" fill="black"/>
<path d="M414.03 24.1177L415.998 24.708L416.981 38.3837L418.064 38.7772L417.867 39.6627L413.144 38.3837L413.341 37.4982L414.915 37.695L414.817 34.8418L409.602 33.366L408.028 35.8256L409.504 36.4159L409.307 37.3014L405.077 36.1208L405.273 35.2353L406.454 35.3337L414.03 24.1177ZM414.423 27.266V25.5935L413.538 27.0693L410.094 32.3821L414.718 33.6611L414.423 27.266Z" fill="black"/>
<path d="M423.671 28.1513L422.392 27.4626L422.688 26.5771L425.049 27.3642C425.442 27.4626 425.934 27.6594 426.328 27.7578C427.017 27.9546 427.607 28.0529 428.197 28.2497C429.87 28.84 431.05 29.5287 431.542 30.4142C432.034 31.2997 432.133 32.3819 431.739 33.5626C431.444 34.5464 430.952 35.2351 430.263 35.8254C429.575 36.4158 428.788 36.7109 427.902 36.8093C427.017 36.9077 426.033 36.8093 425.049 36.5141C424.655 36.4158 424.36 36.3174 423.967 36.1206C423.573 36.0222 423.376 35.9238 423.278 35.8254L421.999 39.7609L424.36 40.7447L424.065 41.6302L418.26 39.7609L418.555 38.8754L420.13 39.1706L423.671 28.1513ZM425.344 35.6287C426.328 35.9238 427.115 35.9238 427.902 35.5303C428.689 35.1367 429.279 34.3496 429.673 32.9722C429.968 31.9884 429.968 31.1029 429.575 30.5126C429.181 29.9223 428.492 29.4303 427.41 29.0368C427.017 28.9384 426.623 28.84 426.131 28.7416C425.836 28.6433 425.639 28.6433 425.639 28.6433L423.573 34.94C423.967 35.1367 424.459 35.3335 425.344 35.6287Z" fill="black"/>
<path d="M432.428 43.7947C431.739 42.9092 431.346 41.8269 431.247 40.7447C431.149 39.6624 431.346 38.285 431.838 36.9076C432.33 35.6286 433.018 34.5464 433.904 33.7593C434.789 32.9722 435.871 32.4803 437.052 32.2835C438.233 32.0867 439.413 32.1851 440.594 32.677C441.48 32.9722 442.562 33.5625 443.644 34.2512L444.234 34.5464L442.857 37.5963L441.676 37.2028L442.07 34.8415C441.971 34.6448 441.676 34.448 441.381 34.1528C441.086 33.8577 440.496 33.6609 439.905 33.4641C439.118 33.169 438.43 33.169 437.642 33.3657C436.855 33.5625 436.167 34.0544 435.576 34.7431C434.986 35.4318 434.396 36.4157 434.002 37.498C433.609 38.5802 433.412 39.6624 433.313 40.6463C433.313 41.6302 433.412 42.5156 433.904 43.3027C434.396 44.0898 434.986 44.5817 435.871 44.8769C436.462 45.0737 436.954 45.2705 437.347 45.2705C437.741 45.2705 438.036 45.2705 438.331 45.1721L439.709 43.6963L440.791 44.2866L439.413 46.6479C439.118 46.5495 438.725 46.5495 438.233 46.4511C437.741 46.4511 437.347 46.3527 436.855 46.3527C436.462 46.2543 435.97 46.1559 435.38 45.9592C434.199 45.3688 433.117 44.6801 432.428 43.7947Z" fill="black"/>
<path d="M459.779 40.548L459.386 41.4335L457.615 40.8432L453.778 49.4028L456.139 47.927L463.715 44.1883L463.911 43.6964L462.534 42.8109L462.928 41.9254L467.65 44.0899L467.257 44.9754L465.781 44.5819L460.96 55.2076L462.337 55.9947L461.944 56.7817L457.221 54.6172L457.615 53.8302L459.189 54.3221L463.124 45.6641L460.96 47.0415L453.187 50.8786L452.892 51.4689L454.368 52.3544L453.975 53.1415L449.154 50.977L449.547 50.1899L451.023 50.6818L455.844 40.0561L454.565 39.269L454.958 38.3835L459.779 40.548Z" fill="black"/>
<path d="M471.094 46.156C471.684 46.2544 472.078 46.4511 472.471 46.5495C472.865 46.6479 473.258 46.8447 473.553 46.9431C474.931 47.6318 475.915 48.4189 476.407 49.3043C476.898 50.1898 476.898 51.0753 476.407 51.9608C475.915 52.8462 475.324 53.4366 474.439 53.6333C473.652 53.9285 472.766 53.9285 471.881 53.6333C472.865 54.2236 473.553 54.9123 473.849 55.6994C474.144 56.4865 474.045 57.372 473.652 58.1591C473.061 59.3397 472.176 60.1268 471.094 60.3236C470.011 60.6187 468.732 60.3236 467.06 59.5365C466.371 59.2413 465.879 58.8478 465.387 58.4543C464.895 58.0607 464.6 57.7655 464.305 57.5688C464.108 57.372 463.911 57.1752 463.813 57.0768L465.584 54.322L466.371 54.7156L465.781 57.0768C466.174 57.6672 466.863 58.1591 467.749 58.651C468.536 59.0446 469.126 59.143 469.815 58.8478C470.405 58.5526 470.995 58.0607 471.389 57.1752C471.782 56.4865 471.782 55.7978 471.684 55.1091C471.586 54.4204 470.897 53.8301 469.913 53.3382L468.732 52.7479L469.224 51.8624L470.208 52.3543C470.7 52.5511 471.192 52.7479 471.684 52.7479C472.176 52.7479 472.668 52.6495 473.16 52.3543C473.652 52.0592 473.947 51.6656 474.242 51.0753C474.636 50.2882 474.734 49.6979 474.439 49.1076C474.242 48.5173 473.75 48.1237 472.963 47.7302C472.471 47.435 472.078 47.3366 471.586 47.2382C471.192 47.1398 470.897 47.2382 470.7 47.3366L469.618 48.714L468.536 48.2221L469.716 45.5657C470.11 45.8608 470.503 45.9592 471.094 46.156Z" fill="black"/>
<path d="M484.868 54.519L483.687 53.5351L484.179 52.748L486.344 54.0271C486.737 54.2238 487.229 54.519 487.819 54.8142C488.41 55.1093 488.803 55.3061 489 55.4045C490.476 56.29 491.46 57.077 491.755 57.9625C492.148 58.7496 492.05 59.6351 491.558 60.5205C491.066 61.3076 490.476 61.7996 489.787 62.0947C489.098 62.3899 488.213 62.3899 487.327 62.0947C488.41 62.685 489.098 63.3737 489.393 64.2592C489.689 65.1447 489.59 65.9318 489.098 66.8173C488.508 67.8995 487.524 68.5882 486.442 68.785C485.261 68.9818 483.785 68.5882 482.015 67.6044C481.621 67.4076 481.227 67.1124 480.932 66.9156C480.145 66.4237 479.653 66.1286 479.456 66.0302L477.292 64.7512L477.784 63.9641L479.26 64.5544L484.868 54.519ZM482.408 66.7189C483.49 67.3092 484.376 67.6043 485.163 67.4076C485.95 67.2108 486.54 66.7189 487.032 65.9318C487.524 65.1447 487.623 64.3576 487.426 63.7673C487.229 63.177 486.639 62.5867 485.655 61.9963C484.573 61.406 483.884 61.0125 483.589 60.8157L480.834 65.6366C480.932 65.8334 481.523 66.1286 482.408 66.7189ZM485.064 60.3238L485.95 60.8157C486.737 61.2093 487.426 61.406 488.016 61.2093C488.606 61.0125 489.197 60.5206 489.59 59.7335C489.984 58.9464 490.181 58.3561 489.984 57.7657C489.787 57.1754 489.197 56.5851 488.311 56.0932C487.918 55.8964 487.524 55.6996 487.032 55.5029L486.639 55.3061L484.081 59.8319C484.277 59.8319 484.573 60.0286 485.064 60.3238Z" fill="black"/>
<path d="M499.527 61.7009L501.298 62.7832L498.248 76.0653L499.134 76.8524L498.642 77.6395L494.51 74.9831L495.001 74.196L496.379 74.8847L497.166 72.0315L492.542 69.0799L490.279 70.9492L491.558 71.9331L491.066 72.7202L487.327 70.3589L487.819 69.5718L488.902 70.0637L499.527 61.7009ZM498.839 64.8493L499.33 63.1767L498.051 64.3573L493.231 68.3912L497.264 70.9492L498.839 64.8493Z" fill="black"/>
<path d="M501.495 78.9187C501.003 77.8364 500.905 76.7542 501.102 75.5735C501.298 74.3929 501.79 73.2123 502.676 72.0316C503.463 70.851 504.447 70.0639 505.529 69.4736C506.611 68.8833 507.792 68.6865 508.973 68.7849C510.153 68.8833 511.235 69.2768 512.318 70.0639C513.105 70.6542 513.99 71.4413 514.876 72.4252L515.269 72.9171L513.203 75.5735L512.219 74.8848L513.203 72.622C513.105 72.4252 513.006 72.13 512.711 71.8349C512.416 71.5397 512.022 71.1462 511.531 70.851C510.842 70.3591 510.153 70.1623 509.366 70.1623C508.579 70.1623 507.792 70.4575 507.005 70.9494C506.218 71.4413 505.431 72.2284 504.742 73.2123C504.053 74.1961 503.561 75.18 503.266 76.0655C502.971 77.0493 502.971 77.9348 503.168 78.7219C503.364 79.509 503.856 80.1977 504.643 80.788C505.234 81.1815 505.627 81.3783 506.021 81.4767C506.414 81.5751 506.71 81.6735 507.005 81.5751L508.677 80.4928L509.563 81.2799L507.693 83.2477C507.497 83.1493 507.103 82.9525 506.611 82.7557C506.119 82.6573 505.726 82.4606 505.332 82.2638C504.939 82.067 504.447 81.8702 503.955 81.4767C502.774 80.8864 501.987 80.0009 501.495 78.9187Z" fill="black"/>
<path d="M521.664 80.6895C522.746 80.296 523.73 80.1976 524.714 80.296C525.698 80.3944 526.682 80.8863 527.469 81.4766C528.453 82.2637 529.043 83.0508 529.437 84.0346C529.732 85.0185 529.83 86.0024 529.535 87.0846C529.24 88.1669 528.748 89.2491 527.862 90.3313C526.977 91.512 525.895 92.3975 524.812 92.9878C523.73 93.5781 522.648 93.7749 521.467 93.6765C520.287 93.5781 519.401 93.1846 518.516 92.4959C517.532 91.7088 516.843 90.8233 516.45 89.8394C516.056 88.8556 516.056 87.8717 516.253 86.7895C516.548 85.7072 517.04 84.625 517.827 83.5427L515.466 81.6734L512.121 86.0024L513.301 87.183L512.711 87.8717L508.677 84.7233L509.267 84.0346L510.645 84.8217L517.729 75.6718L516.646 74.5896L517.237 73.8025L521.172 76.8525L520.582 77.6395L519.204 76.8525L516.155 80.7879L518.516 82.6572C519.696 81.7718 520.68 81.1815 521.664 80.6895ZM523.632 81.7718C522.451 82.1653 521.172 83.1492 519.893 84.8217C518.811 86.2975 518.122 87.5765 518.024 88.8556C517.925 90.1346 518.319 91.1184 519.303 91.9055C520.287 92.5942 521.271 92.791 522.451 92.2991C523.632 91.9055 524.812 90.8233 526.091 89.2491C527.174 87.7733 527.862 86.4943 527.961 85.2153C528.059 83.9363 527.666 82.9524 526.78 82.2637C525.895 81.575 524.812 81.3782 523.632 81.7718Z" fill="black"/>
<path d="M534.454 97.7104C534.454 98.4975 534.258 99.5797 534.061 100.859C533.864 101.744 533.864 102.433 533.766 102.826C533.766 103.22 533.766 103.614 533.864 103.712L534.258 104.302L533.667 104.991L531.896 103.515C531.7 103.318 531.601 102.925 531.7 102.335C531.798 101.744 531.896 100.859 532.093 99.7765C532.388 98.4975 532.487 97.5136 532.585 96.8249C532.683 96.1362 532.487 95.6443 532.29 95.3491L531.404 94.562L527.961 98.5959L529.043 99.8749L528.453 100.564L524.616 97.2185L525.206 96.5298L526.485 97.4153L534.061 88.6589L533.077 87.4783L533.667 86.7896L537.406 90.0363L536.816 90.725L535.537 89.8395L531.995 93.8733L533.175 94.9556L539.57 93.3814L538.488 92.2008L539.078 91.5121L542.522 94.562L541.932 95.2507L540.653 94.4637L534.061 95.9395C534.356 96.333 534.454 96.9233 534.454 97.7104Z" fill="black"/>
<path d="M536.52 106.86C536.324 105.876 536.324 104.794 536.816 103.712C537.209 102.63 537.898 101.547 538.882 100.563C539.865 99.4812 540.948 98.7925 542.03 98.3989C543.211 98.0054 544.293 97.907 545.375 98.1038C546.457 98.3005 547.441 98.7925 548.327 99.6779C549.704 101.055 550.393 102.433 550.294 104.105C550.196 105.679 549.409 107.254 547.933 108.828C546.949 109.91 545.867 110.599 544.686 111.091C543.506 111.484 542.424 111.583 541.243 111.386C540.161 111.189 539.177 110.599 538.291 109.812C537.307 108.828 536.816 107.844 536.52 106.86ZM544.391 99.3828C543.211 99.6779 541.833 100.563 540.456 102.039C539.177 103.417 538.39 104.696 538.193 105.975C537.898 107.254 538.291 108.238 539.177 109.123C540.062 109.91 541.145 110.205 542.325 109.91C543.604 109.615 544.883 108.729 546.261 107.254C547.54 105.876 548.327 104.597 548.523 103.318C548.72 102.138 548.425 101.055 547.54 100.17C546.654 99.3828 545.67 99.0876 544.391 99.3828Z" fill="black"/>
<path d="M554.23 107.155L553.344 105.876L554.033 105.188L555.804 106.959C556.099 107.254 556.493 107.647 556.985 108.041C557.477 108.434 557.772 108.73 557.969 108.926C559.149 110.205 559.838 111.189 559.936 112.173C560.035 113.157 559.74 113.846 559.051 114.633C558.461 115.223 557.673 115.617 556.886 115.715C556.099 115.813 555.312 115.617 554.525 115.026C555.411 115.912 555.804 116.699 555.902 117.683C556.001 118.568 555.607 119.355 554.919 120.044C554.033 120.93 552.951 121.323 551.77 121.225C550.59 121.126 549.311 120.339 547.835 118.863C547.54 118.568 547.245 118.175 546.949 117.88C546.261 117.191 545.867 116.699 545.769 116.601L543.998 114.83L544.687 114.239L545.867 115.223L554.23 107.155ZM548.425 118.175C549.311 119.06 550.098 119.552 550.885 119.552C551.672 119.552 552.361 119.257 553.049 118.568C553.738 117.88 554.033 117.191 554.033 116.601C554.033 116.01 553.64 115.223 552.853 114.436C551.967 113.551 551.377 112.96 551.18 112.763L547.146 116.601C547.343 116.994 547.736 117.486 548.425 118.175ZM552.754 112.763L553.443 113.551C554.033 114.141 554.722 114.436 555.312 114.436C556.001 114.436 556.591 114.141 557.28 113.452C557.87 112.862 558.165 112.272 558.165 111.681C558.165 111.091 557.772 110.402 556.985 109.615C556.69 109.32 556.296 109.025 556.001 108.631L555.706 108.336L551.967 111.976C552.164 112.173 552.361 112.37 552.754 112.763Z" fill="black"/>
<path d="M574.891 128.013L574.202 128.603L573.022 127.521L564.265 135.097L565.249 136.573L564.561 137.163L561.117 133.129L561.806 132.539L562.986 133.621L571.841 126.045L567.906 121.52L559.051 129.194L560.035 130.67L559.346 131.26L555.903 127.324L556.591 126.734L557.674 127.718L566.43 120.142L565.544 118.765L566.233 118.175L574.891 128.013Z" fill="black"/>
<path d="M567.414 139.918C567.315 138.836 567.61 137.852 568.102 136.868C568.693 135.884 569.48 134.9 570.562 134.015C571.644 133.129 572.825 132.539 574.006 132.342C575.186 132.146 576.268 132.146 577.351 132.539C578.433 132.933 579.318 133.621 580.007 134.507C581.188 136.081 581.68 137.557 581.286 139.131C580.991 140.705 579.909 142.181 578.236 143.46C577.055 144.345 575.875 144.936 574.694 145.133C573.514 145.329 572.333 145.329 571.251 144.936C570.168 144.542 569.283 143.854 568.496 142.968C567.906 141.984 567.414 140.902 567.414 139.918ZM576.268 133.72C574.989 133.818 573.612 134.507 571.939 135.786C570.464 136.967 569.48 138.147 569.086 139.328C568.693 140.508 568.791 141.591 569.578 142.575C570.365 143.558 571.349 143.952 572.628 143.854C573.907 143.755 575.383 143.066 576.957 141.787C578.433 140.607 579.417 139.426 579.81 138.246C580.204 137.065 580.007 135.983 579.318 134.999C578.531 134.015 577.547 133.621 576.268 133.72Z" fill="black"/>
<path d="M580.204 149.363C578.63 150.15 577.351 150.642 576.367 150.74C575.875 150.74 575.383 150.74 575.088 150.544C574.694 150.347 574.399 150.15 574.104 149.757C573.71 149.265 573.514 148.871 573.415 148.576L574.596 147.592C574.694 147.887 574.989 148.281 575.383 148.773C575.481 148.97 575.678 149.068 575.875 149.166C576.072 149.265 576.268 149.265 576.564 149.265C578.335 149.166 581.089 147.789 584.73 145.132L585.91 144.247L584.828 142.378L585.615 141.787L591.912 150.544L591.125 151.134L589.944 149.855L580.499 156.644L581.385 158.218L580.597 158.71L577.252 153.987L578.039 153.495L579.318 154.971L588.763 148.182L586.599 145.132L585.222 146.116C583.451 147.592 581.778 148.576 580.204 149.363Z" fill="black"/>
<path d="M592.994 154.282L592.305 152.905L593.092 152.413L598.307 160.382L596.044 162.153L595.454 161.268L596.634 159.792L594.175 155.857L589.747 158.71L591.518 161.268L592.994 160.678L593.584 161.563L589.944 163.924L589.354 163.039L590.534 161.957L588.862 159.3L584.238 162.35L587.288 166.679L589.846 166.187L590.141 167.269L587.091 168.548L581.385 159.89L582.172 159.399L583.155 160.579L592.994 154.282Z" fill="black"/>
<path d="M601.455 167.368L599.684 164.711L595.946 166.187L595.355 165.105L599.783 162.842L605.784 172.877L601.554 175.632L600.963 174.648L604.013 172.09L602.439 169.237L592.305 175.239L593.486 177.6L592.699 178.092L589.059 171.992L589.846 171.5L591.223 173.468L601.455 167.368Z" fill="black"/>
<path d="M602.734 183.503L602.341 182.716C602.046 182.519 601.554 182.519 600.865 182.519C600.176 182.519 599.389 182.618 598.405 182.716C597.421 182.814 596.733 182.814 596.241 182.814C595.749 182.814 595.454 182.716 595.355 182.519L594.175 180.256L594.962 179.863L595.454 180.453C595.552 180.551 595.847 180.65 596.241 180.748C596.634 180.748 597.225 180.748 598.012 180.847C598.897 180.847 599.684 180.847 600.373 180.847C600.963 180.945 601.455 181.043 601.849 181.24C601.652 180.355 601.75 179.568 602.046 178.879C602.439 178.092 603.029 177.502 603.817 177.108C605.096 176.419 606.276 176.321 607.162 176.813C608.047 177.305 608.933 178.289 609.72 179.764C609.916 180.06 610.113 180.552 610.31 181.043C610.507 181.634 610.704 182.027 610.9 182.322L612.179 184.684L611.392 185.176L610.408 183.897L600.176 189.406L600.865 190.98L600.078 191.276L597.421 186.455L598.208 186.061L599.192 187.537L603.521 185.176L602.734 183.503ZM609.425 181.437C609.228 180.945 609.031 180.453 608.834 180.06C608.342 179.174 607.85 178.682 607.26 178.387C606.67 178.092 605.883 178.289 604.997 178.781C604.112 179.272 603.521 179.863 603.325 180.552C603.128 181.24 603.226 182.027 603.718 182.913C604.21 183.798 604.505 184.389 604.702 184.585L609.72 181.831L609.425 181.437Z" fill="black"/>
<path d="M614.246 190.98L612.77 188.127L608.933 189.308L608.441 188.226L613.065 186.356L618.181 196.785L613.754 199.146L613.262 198.064L616.508 195.801L615.229 192.85L604.604 197.966L605.588 200.425L604.8 200.819L601.652 194.424L602.439 194.03L603.718 196.096L614.246 190.98Z" fill="black"/>
<path d="M609.72 210.264C609.916 209.182 610.408 208.099 611.195 207.312C611.982 206.427 613.065 205.738 614.344 205.148C615.623 204.656 616.902 204.361 618.082 204.557C619.263 204.656 620.345 205.148 621.329 205.836C622.313 206.525 623.002 207.509 623.494 208.69C623.887 209.575 624.182 210.657 624.379 212.035L624.478 212.625L621.329 213.707L620.837 212.527L622.805 211.149C622.903 210.953 622.903 210.559 622.805 210.166C622.707 209.772 622.608 209.182 622.313 208.69C622.018 208.001 621.526 207.411 620.837 207.017C620.149 206.624 619.361 206.427 618.378 206.427C617.394 206.427 616.41 206.722 615.229 207.116C614.147 207.607 613.261 208.099 612.474 208.788C611.687 209.477 611.195 210.165 610.9 210.953C610.605 211.74 610.703 212.625 610.999 213.412C611.294 214.003 611.491 214.494 611.786 214.79C611.983 215.085 612.278 215.282 612.573 215.478H614.541L614.836 216.659L612.179 217.249C612.081 217.053 611.884 216.659 611.491 216.265C611.195 215.872 610.9 215.577 610.703 215.183C610.507 214.79 610.212 214.396 610.015 213.806C609.72 212.625 609.523 211.444 609.72 210.264Z" fill="black"/>
<path d="M627.626 219.512L626.741 219.807L625.855 218.135L617 221.382L619.657 222.07L627.724 224.825L628.216 224.628L627.823 222.956L628.708 222.661L630.479 227.482L629.594 227.777L628.905 226.498L617.984 230.532L618.378 232.106L617.492 232.401L615.721 227.482L616.607 227.186L617.394 228.662L626.347 225.415L623.789 224.825L615.623 221.972L615.033 222.169L615.426 223.841L614.541 224.136L612.77 219.217L613.655 218.922L614.344 220.299L625.265 216.266L624.97 214.79L625.855 214.495L627.626 219.512Z" fill="black"/>
<path d="M634.119 238.796L629.495 240.37L629.102 239.19L632.545 237.517L631.463 233.582L620.247 237.124L621.034 240.272L620.149 240.567L617.886 233.582L618.771 233.287L619.558 235.156L630.578 231.614L630.184 229.646L631.07 229.351L634.119 238.796Z" fill="black"/>
<path d="M633.923 242.24L633.726 240.764L634.611 240.567L635.89 245.486L635.005 245.683L634.415 244.207L629.594 245.486L631.266 251.882L636.087 250.603L635.89 249.127L636.776 248.93L638.055 253.751L637.169 253.948L636.579 252.57L625.363 255.62L625.56 257.096L624.674 257.293L623.395 252.472L624.281 252.275L624.871 253.751L630.086 252.373L628.413 245.978L623.199 247.356L623.395 248.93L622.51 249.127L621.132 244.207L622.018 244.011L622.608 245.388L633.923 242.24Z" fill="black"/>
<path d="M639.826 260.244L640.318 262.212L628.708 269.394L628.807 270.575L627.921 270.771L626.839 265.951L627.724 265.754L628.216 267.23L630.774 265.754L629.594 260.441L626.74 260.146L626.937 261.72L626.052 261.917L625.068 257.588L625.953 257.391L626.347 258.473L639.826 260.244ZM637.169 262.114L638.645 261.326L636.874 261.228L630.577 260.638L631.561 265.262L637.169 262.114Z" fill="black"/>
<path d="M633.726 274.707C631.955 274.707 630.676 274.609 629.692 274.215C629.2 274.018 628.807 273.822 628.61 273.526C628.315 273.231 628.216 272.838 628.118 272.444C628.019 271.854 627.921 271.46 628.02 271.165L629.495 270.772C629.495 271.067 629.594 271.559 629.692 272.149C629.692 272.346 629.79 272.543 629.987 272.739C630.086 272.936 630.282 273.034 630.578 273.133C632.152 273.822 635.3 273.723 639.727 272.936L641.203 272.641L641.006 270.476L641.892 270.28L643.761 280.905L642.876 281.102L642.384 279.43L630.971 281.397L631.069 283.267L630.184 283.463L629.2 277.757L630.086 277.56L630.578 279.43L641.99 277.462L641.302 273.723L639.629 274.018C637.366 274.412 635.398 274.609 633.726 274.707Z" fill="black"/>
<path d="M639.432 289.662C639.629 291.137 639.432 292.417 638.744 293.302C638.153 294.187 637.17 294.679 635.891 294.876C634.513 295.073 633.332 294.679 632.447 293.892C631.562 293.105 631.07 291.925 630.873 290.449C630.873 290.252 630.873 290.055 630.774 289.858C630.676 289.662 630.774 289.465 630.774 289.17C630.774 288.481 630.676 287.792 630.676 287.202L630.381 284.644L631.266 284.546L631.66 286.12L643.269 284.742L643.368 283.168L644.253 283.07L644.844 288.383L643.958 288.481L643.368 286.71L639.039 287.202L639.432 289.662ZM631.758 288.973C631.758 289.17 631.758 289.563 631.857 289.957C631.955 291.039 632.349 291.728 633.037 292.22C633.726 292.712 634.513 292.908 635.595 292.712C636.579 292.613 637.366 292.22 637.76 291.629C638.252 291.039 638.35 290.252 638.252 289.17L638.055 287.3L631.758 288.088C631.758 288.481 631.758 288.776 631.758 288.973ZM646.221 300.681L645.336 300.779L644.942 299.107L633.431 300.484V302.255L632.545 302.354L631.857 296.942L632.742 296.844L633.136 298.516L644.647 297.139V295.368L645.532 295.27L646.221 300.681Z" fill="black"/>
<path d="M645.631 309.339L645.827 307.863H646.713L646.91 312.979H646.024L645.729 311.405L640.711 311.602L641.006 318.194L646.024 317.997L646.221 316.521H647.106L647.303 321.539H646.418L646.123 320.063L634.513 320.653L634.415 322.129H633.529L633.332 317.111H634.218L634.513 318.587L639.924 318.292L639.629 311.7L634.218 311.995L634.119 313.668H633.234L633.037 308.552H633.923L634.218 310.028L645.631 309.339Z" fill="black"/>
<path d="M647.5 328.032V330.098L634.71 334.821L634.513 336.001H633.627L633.529 331.082H634.415L634.611 332.656L637.366 331.771L637.268 326.36L634.513 325.573L634.316 327.147H633.431L633.332 322.719H634.218L634.415 323.9L647.5 328.032ZM644.548 329.213L646.221 328.721L644.548 328.327L638.547 326.556L638.645 331.279L644.548 329.213Z" fill="black"/>
<path d="M646.024 343.872L646.418 341.806L647.303 341.905L647.008 346.824L638.448 348.89L636.087 349.382L638.448 350.071L646.713 353.219L646.418 358.138L645.532 358.04L645.434 355.974L633.726 356.761L633.431 358.335L632.545 358.237L632.84 352.826L633.726 352.924L633.824 354.597L642.285 354.301L645.926 354.105L643.269 353.121L633.726 349.382L633.824 348.201L642.974 345.742L646.614 344.856L642.974 344.266L634.611 342.987L634.316 344.856L633.431 344.758L633.726 339.937L634.611 340.035L634.71 341.61L646.024 343.872Z" fill="black"/>
<path d="M645.631 365.32L645.434 367.387L632.152 370.437L631.857 371.519L630.971 371.42L631.561 366.501L632.447 366.6V368.174L635.3 367.583L635.89 362.172L633.234 360.991L632.84 362.566L631.955 362.467L632.447 358.04L633.332 358.138L633.431 359.319L645.631 365.32ZM642.482 366.108L644.155 365.812L642.581 365.222L636.874 362.664L636.382 367.387L642.482 366.108Z" fill="black"/>
<path d="M643.073 375.356L643.564 373.978L644.45 374.077L644.056 376.536C643.958 377.028 643.958 377.422 643.86 377.816C643.761 378.504 643.761 379.095 643.663 379.685C643.368 381.456 642.876 382.636 642.089 383.325C641.302 383.915 640.318 384.211 638.94 384.014C637.956 383.817 637.169 383.522 636.481 382.932C635.792 382.341 635.398 381.653 635.103 380.767C634.808 379.882 634.808 378.898 635.005 377.914C635.103 377.52 635.103 377.225 635.202 376.832C635.3 376.438 635.3 376.241 635.398 376.143L631.365 375.553L630.774 378.012L629.889 377.914L630.873 371.912L631.758 372.011L631.66 373.585L643.073 375.356ZM635.989 378.111C635.792 379.095 635.989 379.882 636.481 380.669C636.973 381.456 637.858 381.849 639.235 382.046C640.318 382.243 641.105 382.046 641.597 381.653C642.187 381.161 642.482 380.374 642.679 379.291C642.777 378.898 642.777 378.504 642.777 378.012C642.777 377.717 642.777 377.52 642.777 377.422L636.186 376.438C636.186 376.733 636.087 377.324 635.989 378.111Z" fill="black"/>
<path d="M629.003 386.474C629.791 385.686 630.774 385.096 631.857 384.801C633.037 384.506 634.316 384.506 635.694 384.801C637.071 385.096 638.252 385.588 639.137 386.375C640.121 387.162 640.711 388.146 641.105 389.228C641.498 390.311 641.597 391.491 641.302 392.77C641.105 393.754 640.711 394.836 640.219 396.115L640.023 396.706L636.776 395.919L636.973 394.738H639.432C639.629 394.64 639.826 394.344 640.023 393.951C640.219 393.557 640.318 393.065 640.515 392.475C640.711 391.688 640.613 390.999 640.219 390.212C639.924 389.523 639.334 388.933 638.547 388.343C637.76 387.851 636.776 387.457 635.497 387.162C634.316 386.965 633.234 386.867 632.25 386.965C631.266 387.064 630.381 387.359 629.692 387.949C629.003 388.441 628.61 389.13 628.413 390.114C628.315 390.803 628.216 391.294 628.315 391.688C628.315 392.082 628.413 392.377 628.61 392.672L630.282 393.754L629.889 394.836L627.331 393.852C627.331 393.557 627.331 393.164 627.331 392.672C627.331 392.18 627.232 391.786 627.232 391.294C627.232 390.901 627.331 390.311 627.429 389.72C627.724 388.441 628.216 387.359 629.003 386.474Z" fill="black"/>
<path d="M636.481 412.939L635.595 412.644L635.89 410.775L626.839 408.315L628.61 410.381L633.529 417.367L634.021 417.465L634.71 415.891L635.595 416.186L634.218 421.105L633.332 420.81L633.529 419.334L622.313 416.284L621.723 417.76L620.837 417.563L622.215 412.546L623.1 412.743L622.805 414.415L631.955 416.973L630.184 415.104L625.265 408.02L624.576 407.823L623.887 409.496L623.002 409.299L624.379 404.183L625.265 404.38L625.068 405.954L636.284 409.004L636.874 407.626L637.76 407.922L636.481 412.939Z" fill="black"/>
<path d="M632.742 424.942C632.644 425.533 632.644 426.025 632.545 426.418C632.447 426.812 632.348 427.205 632.25 427.501C631.758 428.976 631.168 430.059 630.381 430.649C629.594 431.239 628.708 431.436 627.724 431.141C626.74 430.846 626.15 430.255 625.756 429.468C625.363 428.681 625.265 427.894 625.363 426.91C624.969 427.992 624.379 428.78 623.592 429.173C622.805 429.567 622.018 429.665 621.132 429.37C619.853 428.976 618.968 428.288 618.574 427.205C618.181 426.221 618.181 424.844 618.771 423.073C618.968 422.384 619.263 421.794 619.558 421.204C619.853 420.712 620.148 420.318 620.345 420.023C620.542 419.728 620.64 419.531 620.739 419.531L623.69 420.81L623.395 421.696L620.936 421.401C620.444 421.893 620.05 422.581 619.657 423.663C619.361 424.451 619.46 425.139 619.755 425.73C620.05 426.32 620.739 426.713 621.723 427.009C622.411 427.205 623.1 427.205 623.789 426.91C624.477 426.615 624.969 425.926 625.265 424.942L625.658 423.663L626.642 423.959L626.347 424.942C626.15 425.434 626.15 425.926 626.15 426.418C626.248 426.91 626.445 427.402 626.74 427.796C627.036 428.189 627.527 428.484 628.118 428.681C628.905 428.976 629.594 428.878 630.086 428.583C630.577 428.288 630.971 427.697 631.266 426.91C631.463 426.418 631.561 425.926 631.463 425.533C631.463 425.139 631.364 424.844 631.168 424.647L629.594 423.762L629.987 422.68L632.742 423.368C632.84 423.959 632.742 424.352 632.742 424.942Z" fill="black"/>
<path d="M626.642 439.996L627.429 438.618L628.315 438.913L627.429 441.275C627.233 441.668 627.134 442.16 626.937 442.849C626.741 443.439 626.642 443.833 626.544 444.128C625.954 445.702 625.265 446.784 624.478 447.276C623.691 447.768 622.805 447.867 621.92 447.473C621.133 447.178 620.444 446.686 620.05 445.899C619.657 445.21 619.558 444.423 619.657 443.538C619.263 444.62 618.673 445.407 617.886 445.899C617.099 446.292 616.213 446.391 615.328 445.997C614.147 445.505 613.36 444.718 612.967 443.636C612.573 442.554 612.671 440.98 613.458 439.11C613.655 438.717 613.754 438.323 613.95 437.93C614.344 437.044 614.541 436.454 614.639 436.355L615.525 433.994L616.41 434.289L616.017 435.765L626.642 439.996ZM614.147 439.405C613.655 440.586 613.655 441.57 613.852 442.259C614.049 442.947 614.738 443.538 615.623 443.833C616.508 444.226 617.296 444.226 617.886 443.931C618.476 443.636 618.968 442.947 619.362 441.963C619.854 440.783 620.05 439.996 620.149 439.701L614.934 437.733C614.836 437.831 614.541 438.422 614.147 439.405ZM620.837 440.98L620.444 441.963C620.149 442.75 620.149 443.439 620.444 444.03C620.739 444.62 621.329 445.112 622.116 445.407C622.904 445.702 623.592 445.702 624.183 445.505C624.675 445.21 625.166 444.62 625.56 443.538C625.757 443.144 625.855 442.652 625.954 442.259L626.052 441.865L621.231 439.996C621.231 440.192 621.034 440.488 620.837 440.98Z" fill="black"/>
<path d="M621.723 455.54L620.936 457.41L607.26 456.426L606.67 457.41L605.784 457.016L607.752 452.491L608.637 452.884L608.145 454.36L610.999 454.655L613.163 449.637L610.999 447.768L610.212 449.145L609.326 448.752L611.097 444.718L611.982 445.112L611.687 446.292L621.723 455.54ZM618.476 455.344L620.149 455.54L618.771 454.458L614.049 450.326L612.179 454.655L618.476 455.344Z" fill="black"/>
<path d="M604.997 460.165C605.981 459.574 607.063 459.279 608.244 459.279C609.425 459.279 610.704 459.673 611.983 460.263C613.262 460.853 614.246 461.641 614.934 462.624C615.623 463.608 616.016 464.69 616.115 465.871C616.213 467.052 615.918 468.232 615.426 469.315C615.033 470.2 614.344 471.184 613.557 472.266L613.163 472.758L610.212 471.086L610.802 470.003L613.163 470.594C613.36 470.495 613.655 470.299 613.95 469.905C614.246 469.61 614.541 469.118 614.737 468.528C615.131 467.839 615.229 467.052 615.033 466.265C614.934 465.478 614.541 464.789 613.852 464.1C613.163 463.411 612.376 462.723 611.196 462.231C610.113 461.739 609.129 461.345 608.146 461.247C607.162 461.149 606.276 461.247 605.489 461.542C604.702 461.837 604.112 462.428 603.718 463.313C603.423 463.903 603.226 464.395 603.226 464.789C603.128 465.182 603.226 465.478 603.226 465.773L604.505 467.249L603.817 468.232L601.652 466.658C601.75 466.461 601.849 466.068 601.947 465.478C602.046 464.986 602.144 464.592 602.242 464.199C602.341 463.805 602.538 463.313 602.833 462.723C603.226 461.739 604.013 460.755 604.997 460.165Z" fill="black"/>
<path d="M606.375 480.432C606.965 481.416 607.26 482.4 607.26 483.384C607.26 484.368 607.063 485.352 606.473 486.237C605.883 487.319 605.095 488.106 604.21 488.598C603.325 489.09 602.242 489.287 601.16 489.189C600.078 489.09 598.897 488.697 597.716 488.106C596.437 487.418 595.355 486.532 594.667 485.45C593.978 484.466 593.486 483.384 593.486 482.302C593.388 481.219 593.683 480.137 594.175 479.153C594.765 478.071 595.552 477.284 596.437 476.694C597.323 476.202 598.405 476.005 599.487 476.103C600.57 476.202 601.75 476.595 602.931 477.186L604.407 474.529L599.586 471.873L598.602 473.152L597.815 472.66L600.275 468.134L601.062 468.528L600.471 470.003L610.605 475.611L611.491 474.431L612.278 474.923L609.818 479.35L609.031 478.858L609.621 477.382L605.194 474.923L603.718 477.579C604.997 478.563 605.784 479.448 606.375 480.432ZM605.686 482.4C605.095 481.318 603.915 480.236 602.144 479.252C600.57 478.366 599.094 477.973 597.815 478.071C596.536 478.169 595.552 478.76 594.962 479.842C594.371 480.924 594.371 481.908 594.962 482.99C595.552 484.073 596.733 485.155 598.602 486.139C600.176 487.024 601.554 487.418 602.833 487.418C604.112 487.418 604.997 486.827 605.587 485.745C606.178 484.663 606.178 483.581 605.686 482.4Z" fill="black"/>
<path d="M591.518 495.584C590.731 495.682 589.649 495.682 588.37 495.682C587.484 495.682 586.796 495.682 586.304 495.682C585.91 495.682 585.615 495.78 585.418 495.977L584.828 496.469L584.041 495.977L585.222 494.01C585.418 493.813 585.714 493.616 586.402 493.616C586.993 493.616 587.878 493.616 589.059 493.616C590.338 493.714 591.322 493.714 592.109 493.616C592.797 493.616 593.289 493.419 593.486 493.026L594.076 492.042L589.551 489.189L588.468 490.468L587.681 489.976L590.436 485.647L591.223 486.139L590.534 487.516L600.373 493.714L601.357 492.534L602.144 493.026L599.488 497.256L598.701 496.764L599.291 495.289L594.765 492.435L593.88 493.813L596.438 499.913L597.422 498.732L598.209 499.224L595.749 503.159L594.962 502.668L595.552 501.29L593.093 494.993C592.994 495.289 592.305 495.485 591.518 495.584Z" fill="black"/>
<path d="M582.86 499.126C583.844 498.732 584.926 498.634 586.009 498.929C587.189 499.126 588.272 499.716 589.452 500.503C590.633 501.29 591.518 502.274 592.109 503.356C592.699 504.439 592.994 505.521 592.896 506.603C592.797 507.685 592.502 508.768 591.813 509.751C590.731 511.326 589.354 512.211 587.78 512.408C586.205 512.605 584.533 512.014 582.664 510.834C581.483 510.047 580.597 509.063 580.007 507.98C579.417 506.898 579.122 505.816 579.22 504.635C579.22 503.455 579.614 502.471 580.302 501.487C580.991 500.208 581.876 499.519 582.86 499.126ZM591.42 505.718C590.928 504.537 589.846 503.356 588.173 502.274C586.599 501.192 585.222 500.7 583.943 500.602C582.664 500.503 581.68 500.995 580.991 501.979C580.302 502.963 580.204 504.045 580.696 505.226C581.188 506.406 582.27 507.587 583.943 508.768C585.517 509.85 586.894 510.342 588.173 510.44C589.452 510.44 590.436 509.948 591.125 508.964C591.814 507.98 591.912 506.898 591.42 505.718Z" fill="black"/>
<path d="M585.32 516.54L586.402 515.458L587.189 516.048L585.714 518.016C585.418 518.311 585.123 518.803 584.828 519.393C584.533 519.885 584.238 520.279 584.041 520.475C582.959 521.853 582.073 522.64 581.188 522.935C580.302 523.23 579.417 523.033 578.63 522.443C577.941 521.951 577.449 521.263 577.252 520.475C577.056 519.688 577.154 518.901 577.547 518.114C576.859 519.098 576.072 519.688 575.186 519.885C574.301 520.082 573.415 519.885 572.628 519.295C571.644 518.508 571.054 517.524 570.956 516.343C570.857 515.163 571.448 513.687 572.628 512.113C572.923 511.719 573.219 511.424 573.415 511.129C574.006 510.342 574.399 509.948 574.498 509.751L575.973 507.784L576.662 508.374L575.875 509.751L585.32 516.54ZM573.514 512.605C572.727 513.588 572.431 514.474 572.53 515.261C572.628 516.048 573.022 516.737 573.809 517.327C574.596 517.917 575.285 518.114 575.973 518.016C576.662 517.917 577.252 517.425 577.941 516.54C578.728 515.556 579.22 514.867 579.318 514.572L574.891 511.227C574.498 511.227 574.104 511.719 573.514 512.605ZM579.515 515.95L578.925 516.737C578.433 517.426 578.236 518.114 578.335 518.803C578.433 519.492 578.827 520.082 579.614 520.574C580.302 521.066 580.991 521.263 581.581 521.164C582.172 521.066 582.762 520.574 583.451 519.688C583.746 519.295 583.943 518.901 584.238 518.508L584.434 518.213L580.302 515.064C580.007 515.261 579.81 515.556 579.515 515.95Z" fill="black"/>
<g style="mix-blend-mode:overlay">
<circle cx="63.6647" cy="171.823" r="2" transform="rotate(-15 63.6647 171.823)" fill="black"/>
</g>
<g style="mix-blend-mode:overlay">
<circle cx="447.747" cy="42.3749" r="2" transform="rotate(-15 447.747 42.3749)" fill="black"/>
</g>
</g>
</svg>
